<svg width="19" height="19" viewBox="0 0 19 19" fill="none" xmlns="http://www.w3.org/2000/svg">
<g id="Send 2">
<path id="Vector" d="M2.82349 5.981L3.7917 6.23111L2.82349 5.981ZM5.74 3.23595L5.92835 4.21806L5.74 3.23595ZM7.46054 10.5012L7.17841 9.5418L7.46054 10.5012ZM8.38281 11.4235L7.42344 11.1413L8.38281 11.4235ZM12.903 16.0605L13.1531 17.0287L12.903 16.0605ZM15.6481 13.144L16.6302 13.3324L15.6481 13.144ZM17.1102 5.51978L16.1281 5.33143L17.1102 5.51978ZM13.3642 1.77375L13.1759 0.791649L13.3642 1.77375ZM3.73917 13.7306C3.34865 14.1212 3.34865 14.7543 3.73917 15.1448C4.1297 15.5354 4.76286 15.5354 5.15338 15.1448L3.73917 13.7306ZM6.3319 13.9663C6.72242 13.5758 6.72242 12.9426 6.3319 12.5521C5.94137 12.1616 5.30821 12.1616 4.91768 12.5521L6.3319 13.9663ZM4.32843 16.6769C3.9379 17.0674 3.9379 17.7006 4.32843 18.0911C4.71895 18.4816 5.35212 18.4816 5.74264 18.0911L4.32843 16.6769ZM6.92115 16.9126C7.31168 16.5221 7.31168 15.8889 6.92115 15.4984C6.53063 15.1079 5.89746 15.1079 5.50694 15.4984L6.92115 16.9126ZM0.792893 13.1414C0.402369 13.5319 0.402369 14.1651 0.792893 14.5556C1.18342 14.9461 1.81658 14.9461 2.20711 14.5556L0.792893 13.1414ZM3.38562 13.3771C3.77614 12.9866 3.77614 12.3534 3.38562 11.9629C2.99509 11.5723 2.36193 11.5723 1.9714 11.9629L3.38562 13.3771ZM16.1281 5.33143L14.666 12.9557L16.6302 13.3324L18.0923 5.70813L16.1281 5.33143ZM5.92835 4.21806L13.5526 2.75585L13.1759 0.791649L5.55164 2.25385L5.92835 4.21806ZM3.7917 6.23111C4.057 5.2041 4.89276 4.41666 5.92835 4.21806L5.55164 2.25385C3.75079 2.59923 2.31233 3.96156 1.85527 5.73088L3.7917 6.23111ZM7.17841 9.5418C5.16891 10.1328 3.26115 8.28492 3.7917 6.23111L1.85527 5.73088C0.942926 9.26265 4.21759 12.4972 7.74267 11.4606L7.17841 9.5418ZM9.34219 11.7056C9.73137 10.3822 8.50181 9.15262 7.17841 9.5418L7.74267 11.4606C7.54742 11.518 7.36602 11.3366 7.42344 11.1413L9.34219 11.7056ZM12.6529 15.0923C10.5991 15.6229 8.75124 13.7151 9.34219 11.7056L7.42344 11.1413C6.38681 14.6664 9.62133 17.9411 13.1531 17.0287L12.6529 15.0923ZM14.666 12.9557C14.4674 13.9912 13.6799 14.827 12.6529 15.0923L13.1531 17.0287C14.9225 16.5717 16.2848 15.1332 16.6302 13.3324L14.666 12.9557ZM18.0923 5.70813C18.6515 2.79233 16.0917 0.232444 13.1759 0.791649L13.5526 2.75585C15.08 2.4629 16.4211 3.80394 16.1281 5.33143L18.0923 5.70813ZM5.15338 15.1448L6.3319 13.9663L4.91768 12.5521L3.73917 13.7306L5.15338 15.1448ZM5.74264 18.0911L6.92115 16.9126L5.50694 15.4984L4.32843 16.6769L5.74264 18.0911ZM2.20711 14.5556L3.38562 13.3771L1.9714 11.9629L0.792893 13.1414L2.20711 14.5556Z" fill="#BD1622"/>
</g>
</svg>
