<svg width="196" height="65" viewBox="0 0 196 65" fill="none" xmlns="http://www.w3.org/2000/svg">
<path d="M120.365 51.8392C109.569 59.8331 93.9212 64.0982 80.4486 64.0982C61.5579 64.0982 44.5514 57.0791 31.6853 45.4051C30.6744 44.4871 31.5801 43.236 32.7932 43.9509C46.6782 52.0667 63.8464 56.9492 81.5808 56.9492C93.5411 56.9492 106.698 54.4632 118.796 49.3045C120.624 48.5246 122.152 50.5069 120.365 51.8392Z" fill="#FF9900"/>
<path d="M124.853 46.68C123.479 44.909 115.732 45.8433 112.254 46.2576C111.195 46.3876 111.033 45.4615 111.987 44.7953C118.158 40.4327 128.282 41.692 129.463 43.1543C130.644 44.6247 129.156 54.8202 123.357 59.6864C122.468 60.4338 121.619 60.0358 122.015 59.0446C123.317 55.7788 126.236 48.4592 124.853 46.68Z" fill="#FF9900"/>
<path d="M112.497 13.9966V9.75595C112.497 9.11416 112.982 8.68359 113.564 8.68359H132.463C133.069 8.68359 133.555 9.12229 133.555 9.75595V13.3873C133.547 13.9966 133.037 14.7928 132.131 16.052L122.338 30.0982C125.977 30.0089 129.819 30.5532 133.118 32.4217C133.862 32.8441 134.064 33.4615 134.121 34.0708V38.5959C134.121 39.2133 133.441 39.9363 132.73 39.5626C126.915 36.4999 119.193 36.1668 112.764 39.5951C112.109 39.9526 111.421 39.2376 111.421 38.6202V34.3227C111.421 33.6321 111.429 32.4542 112.117 31.4062L123.462 15.0609H113.588C112.982 15.0609 112.497 14.6303 112.497 13.9966Z" fill="#221F1F"/>
<path d="M43.5568 40.4566H37.8071C37.2572 40.416 36.8205 40.0017 36.78 39.4736V9.82943C36.78 9.23638 37.2733 8.76519 37.8879 8.76519H43.2495C43.8075 8.78955 44.2522 9.22013 44.2927 9.75631V13.6314H44.3978C45.7968 9.88629 48.425 8.13965 51.967 8.13965C55.5656 8.13965 57.8138 9.88629 59.4311 13.6314C60.8221 9.88629 63.984 8.13965 67.3723 8.13965C69.7822 8.13965 72.4185 9.13889 74.0278 11.3811C75.8473 13.8751 75.4753 17.4984 75.4753 20.6749L75.4672 39.3842C75.4672 39.9773 74.9739 40.4566 74.3593 40.4566H68.6177C68.0436 40.416 67.5826 39.9529 67.5826 39.3842V23.6726C67.5826 22.4215 67.6958 19.3019 67.4209 18.1158C66.9923 16.1255 65.7065 15.5649 64.0406 15.5649C62.6497 15.5649 61.194 16.4992 60.6037 17.994C60.0134 19.4888 60.07 21.9909 60.07 23.6726V39.3842C60.07 39.9773 59.5767 40.4566 58.9621 40.4566H53.2205C52.6382 40.416 52.1854 39.9529 52.1854 39.3842L52.1773 23.6726C52.1773 20.3661 52.7191 15.4999 48.6353 15.4999C44.5029 15.4999 44.6646 20.2443 44.6646 23.6726V39.3842C44.6646 39.9773 44.1714 40.4566 43.5568 40.4566Z" fill="#221F1F"/>
<path d="M149.825 8.13965C158.357 8.13965 162.974 15.4999 162.974 24.8587C162.974 33.9006 157.872 41.074 149.825 41.074C141.447 41.074 136.886 33.7137 136.886 24.5418C136.886 15.3131 141.504 8.13965 149.825 8.13965ZM149.874 14.192C145.636 14.192 145.37 19.9924 145.37 23.6076C145.37 27.2309 145.313 34.9648 149.825 34.9648C154.281 34.9648 154.491 28.7257 154.491 24.9237C154.491 22.4215 154.386 19.4319 153.634 17.0597C152.987 14.9962 151.701 14.192 149.874 14.192Z" fill="#221F1F"/>
<path d="M174.037 40.4566H168.312C167.737 40.416 167.276 39.9529 167.276 39.3842L167.268 9.73194C167.317 9.18763 167.794 8.76519 168.376 8.76519H173.705C174.207 8.78955 174.619 9.13077 174.732 9.59383V14.127H174.838C176.447 10.0731 178.703 8.13965 182.674 8.13965C185.253 8.13965 187.768 9.0739 189.386 11.6329C190.89 14.0051 190.89 17.994 190.89 20.8617V39.5223C190.825 40.0423 190.348 40.4566 189.782 40.4566H184.016C183.49 40.416 183.054 40.026 182.997 39.5223V23.4207C182.997 20.1793 183.369 15.4349 179.398 15.4349C177.999 15.4349 176.714 16.3773 176.075 17.8071C175.266 19.6187 175.161 21.4223 175.161 23.4207V39.3842C175.153 39.9773 174.652 40.4566 174.037 40.4566Z" fill="#221F1F"/>
<path d="M97.4311 26.2968V25.0457C93.2745 25.0457 88.8833 25.9393 88.8833 30.8624C88.8833 33.3564 90.1691 35.0462 92.3768 35.0462C93.9942 35.0462 95.4417 34.047 96.3555 32.4222C97.4877 30.4237 97.4311 28.5471 97.4311 26.2968ZM103.229 40.3755C102.849 40.7167 102.299 40.7411 101.871 40.5136C99.9622 38.9213 99.6226 38.1821 98.5713 36.6629C95.4175 39.8962 93.1855 40.8629 89.0936 40.8629C84.2577 40.8629 80.4893 37.8652 80.4893 31.8616C80.4893 27.1741 83.0204 23.9814 86.619 22.4217C89.7405 21.0406 94.0993 20.7969 97.4311 20.415V19.6676C97.4311 18.2947 97.5362 16.6699 96.7356 15.4838C96.0321 14.4196 94.6897 13.9809 93.509 13.9809C91.3175 13.9809 89.3605 15.1101 88.8833 17.4498C88.7863 17.9697 88.4062 18.4816 87.8887 18.5059L82.3088 17.9048C81.8398 17.7991 81.3222 17.4173 81.4516 16.6943C82.7374 9.9027 88.8429 7.85547 94.3096 7.85547C97.1076 7.85547 100.763 8.60287 102.971 10.7313C105.769 13.3554 105.502 16.8568 105.502 20.6669V29.6682C105.502 32.3735 106.618 33.5595 107.669 35.0219C108.041 35.5418 108.122 36.1673 107.653 36.5573C106.48 37.5403 104.394 39.3681 103.245 40.3918L103.229 40.3755Z" fill="#221F1F"/>
<path d="M22.0541 26.2968V25.0457C17.8975 25.0457 13.5064 25.9393 13.5064 30.8624C13.5064 33.3564 14.7922 35.0462 16.9999 35.0462C18.6172 35.0462 20.0648 34.047 20.9786 32.4222C22.1107 30.4237 22.0541 28.5471 22.0541 26.2968ZM27.8524 40.3755C27.4723 40.7167 26.9224 40.7411 26.4938 40.5136C24.5853 38.9213 24.2456 38.1821 23.1944 36.6629C20.0405 39.8962 17.8086 40.8629 13.7166 40.8629C8.88074 40.8629 5.1123 37.8652 5.1123 31.8616C5.1123 27.1741 7.64347 23.9814 11.2421 22.4217C14.3636 21.0406 18.7224 20.7969 22.0541 20.415V19.6676C22.0541 18.2947 22.1593 16.6699 21.3587 15.4838C20.6551 14.4196 19.3127 13.9809 18.132 13.9809C15.9405 13.9809 13.9835 15.1101 13.5064 17.4498C13.4093 17.9697 13.0293 18.4816 12.5117 18.5059L6.93183 17.9048C6.4628 17.7991 5.94524 17.4173 6.07463 16.6943C7.36043 9.9027 13.466 7.85547 18.9326 7.85547C21.7306 7.85547 25.3859 8.60287 27.5936 10.7313C30.3916 13.3554 30.1247 16.8568 30.1247 20.6669V29.6682C30.1247 32.3735 31.2407 33.5595 32.292 35.0219C32.664 35.5418 32.7449 36.1673 32.2758 36.5573C31.1032 37.5403 29.0168 39.3681 27.8685 40.3918L27.8524 40.3755Z" fill="#221F1F"/>
</svg>
