<svg width="16" height="16" viewBox="0 0 16 16" fill="none" xmlns="http://www.w3.org/2000/svg">
<path fill-rule="evenodd" clip-rule="evenodd" d="M12.5 8C12.5 8.13261 12.4473 8.25979 12.3536 8.35355C12.2598 8.44732 12.1326 8.5 12 8.5H3C2.86739 8.5 2.74021 8.44732 2.64645 8.35355C2.55268 8.25979 2.5 8.13261 2.5 8C2.5 7.86739 2.55268 7.74021 2.64645 7.64645C2.74021 7.55268 2.86739 7.5 3 7.5L12 7.5C12.1326 7.5 12.2598 7.55268 12.3536 7.64645C12.4473 7.74021 12.5 7.86739 12.5 8V8Z" fill="#162DD3"/>
<path fill-rule="evenodd" clip-rule="evenodd" d="M13.3541 7.6459C13.4006 7.69234 13.4376 7.74752 13.4628 7.80827C13.488 7.86901 13.501 7.93413 13.501 7.9999C13.501 8.06567 13.488 8.13079 13.4628 8.19153C13.4376 8.25228 13.4006 8.30745 13.3541 8.3539L10.3541 11.3539C10.2602 11.4478 10.1329 11.5005 10.0001 11.5005C9.86731 11.5005 9.73997 11.4478 9.64608 11.3539C9.5522 11.26 9.49945 11.1327 9.49945 10.9999C9.49945 10.8671 9.5522 10.7398 9.64608 10.6459L12.2931 7.9999L9.64608 5.3539C9.5522 5.26001 9.49945 5.13268 9.49945 4.9999C9.49945 4.86712 9.5522 4.73979 9.64608 4.6459C9.73997 4.55201 9.86731 4.49927 10.0001 4.49927C10.1329 4.49927 10.2602 4.55201 10.3541 4.6459L13.3541 7.6459Z" fill="#162DD3"/>
</svg>
