<svg width="16" height="16" viewBox="0 0 16 16" fill="none" xmlns="http://www.w3.org/2000/svg">
<path fill-rule="evenodd" clip-rule="evenodd" d="M3.5 8C3.5 8.13261 3.55268 8.25979 3.64645 8.35355C3.74021 8.44732 3.86739 8.5 4 8.5H13C13.1326 8.5 13.2598 8.44732 13.3536 8.35355C13.4473 8.25979 13.5 8.13261 13.5 8C13.5 7.86739 13.4473 7.74021 13.3536 7.64645C13.2598 7.55268 13.1326 7.5 13 7.5L4 7.5C3.86739 7.5 3.74021 7.55268 3.64645 7.64645C3.55268 7.74021 3.5 7.86739 3.5 8V8Z" fill="#162DD3"/>
<path fill-rule="evenodd" clip-rule="evenodd" d="M2.64592 7.6459C2.59935 7.69234 2.56241 7.74752 2.5372 7.80827C2.512 7.86901 2.49902 7.93413 2.49902 7.9999C2.49902 8.06567 2.512 8.13079 2.5372 8.19153C2.56241 8.25228 2.59935 8.30745 2.64592 8.3539L5.64592 11.3539C5.7398 11.4478 5.86714 11.5005 5.99992 11.5005C6.13269 11.5005 6.26003 11.4478 6.35392 11.3539C6.4478 11.26 6.50055 11.1327 6.50055 10.9999C6.50055 10.8671 6.4478 10.7398 6.35392 10.6459L3.70692 7.9999L6.35392 5.3539C6.4478 5.26001 6.50055 5.13268 6.50055 4.9999C6.50055 4.86712 6.4478 4.73979 6.35392 4.6459C6.26003 4.55201 6.13269 4.49927 5.99992 4.49927C5.86714 4.49927 5.7398 4.55201 5.64592 4.6459L2.64592 7.6459Z" fill="#162DD3"/>
</svg>
