<svg width="196" height="68" viewBox="0 0 196 68" fill="none" xmlns="http://www.w3.org/2000/svg">
<path d="M10 3H187V65H10V3ZM28.2819 12.5587C22.5395 15.3877 17.8599 20.5612 16.0738 26.8392C14.2755 33.187 14.6958 40.2616 17.5488 46.2317C20.5877 52.3824 26.3947 57.0468 33.0221 58.5331C37.9321 59.6417 43.1612 59.5473 47.9944 58.0938C52.9892 56.591 57.0464 53.064 60.6955 49.4302C58.1779 46.749 55.6361 44.0925 53.1104 41.4195C50.1483 44.5113 46.7214 47.6318 42.3328 48.2189C37.6371 49.036 32.4483 47.4963 29.272 43.7968C24.6813 38.3072 25.0329 29.003 30.5409 24.2648C33.7616 21.173 38.5019 20.204 42.7652 21.1114C46.8831 21.8997 50.2655 24.6713 53.0256 27.7343C55.6644 25.2872 58.1982 22.7291 60.8208 20.2656C57.3899 15.8763 52.6618 12.5053 47.3357 10.9656C41.0922 9.04808 34.1213 9.57364 28.2819 12.5587ZM65.0316 10.5796C64.874 14.2093 64.9872 17.843 64.9589 21.4768C76.2376 21.4768 87.5203 21.4809 98.799 21.4727C98.7788 17.8389 98.8556 14.2052 98.7465 10.5755C87.5082 10.6083 76.2699 10.596 65.0316 10.5796ZM120.366 10.6412C120.241 11.1093 120.1 11.5732 119.946 12.0331C113.86 27.529 107.718 43.0044 101.701 58.5249C105.774 58.5085 109.851 58.5208 113.929 58.5167C117.34 49.8244 120.799 41.1567 124.23 32.4726C124.868 30.9616 125.345 29.3726 126.153 27.9396C130.158 38.1388 134.248 48.297 138.228 58.5044C142.305 58.5413 146.383 58.4962 150.464 58.5208C144.302 42.524 137.876 26.6298 131.718 10.6289C127.935 10.6371 124.153 10.6166 120.366 10.6412ZM143.51 22.0722C147.777 22.0434 152.04 22.0517 156.308 22.0681C156.288 34.1478 156.288 46.2234 156.308 58.3032C160.062 58.2868 163.82 58.295 167.578 58.295C167.647 46.2152 167.546 34.1355 167.627 22.0599C171.882 22.064 176.138 22.0434 180.393 22.0722C180.409 18.2495 180.401 14.431 180.401 10.6125C168.096 10.6453 155.795 10.633 143.494 10.6207C143.494 14.4392 143.461 18.2578 143.51 22.0722ZM64.9225 28.9989C65.0438 32.5958 64.8256 36.1967 65.0559 39.7894C76.2942 39.7237 87.5365 39.736 98.7748 39.7812C98.8314 36.1803 98.791 32.5752 98.7829 28.9743C87.4961 28.9825 76.2093 28.925 64.9225 28.9989ZM64.9629 47.6934C64.9791 51.3272 64.8821 54.9609 65.0236 58.5906C76.2578 58.5372 87.4921 58.5495 98.7263 58.5865C98.892 54.9486 98.7586 51.3066 98.8031 47.6687C87.5244 47.6318 76.2416 47.5825 64.9629 47.6934Z" fill="#203F99"/>
<path d="M28.2821 12.5587C34.1215 9.57372 41.0924 9.04815 47.3359 10.9656C52.6621 12.5054 57.3902 15.8764 60.8211 20.2656C58.1984 22.7292 55.6646 25.2872 53.0258 27.7344C50.2657 24.6713 46.8833 21.8998 42.7654 21.1115C38.5021 20.204 33.7619 21.1731 30.5411 24.2648C25.0331 29.0031 24.6815 38.3072 29.2722 43.7969C32.4485 47.4964 37.6373 49.0361 42.333 48.219C46.7217 47.6319 50.1485 44.5113 53.1106 41.4195C55.6363 44.0925 58.1782 46.7491 60.6958 49.4303C57.0467 53.0641 52.9894 56.5911 47.9946 58.0938C43.1615 59.5474 37.9323 59.6418 33.0224 58.5332C26.395 57.0468 20.5879 52.3825 17.549 46.2317C14.696 40.2617 14.2757 33.1871 16.074 26.8393C17.8602 20.5613 22.5398 15.3878 28.2821 12.5587Z" fill="white"/>
<path d="M120.367 10.6415C124.153 10.6169 127.935 10.6374 131.718 10.6292C137.877 26.6301 144.302 42.5243 150.465 58.5211C146.383 58.4965 142.306 58.5417 138.228 58.5047C134.248 48.2973 130.158 38.1391 126.153 27.9399C125.345 29.3729 124.868 30.9619 124.23 32.4729C120.799 41.157 117.34 49.8247 113.929 58.517C109.852 58.5211 105.774 58.5088 101.701 58.5252C107.718 43.0047 113.86 27.5293 119.946 12.0334C120.1 11.5736 120.241 11.1096 120.367 10.6415Z" fill="white"/>
<path d="M143.51 22.072C143.461 18.2576 143.494 14.4391 143.494 10.6205C155.795 10.6328 168.096 10.6452 180.401 10.6123C180.401 14.4308 180.409 18.2494 180.393 22.072C176.138 22.0433 171.882 22.0638 167.627 22.0597C167.546 34.1354 167.647 46.2151 167.579 58.2948C163.82 58.2948 160.062 58.2866 156.308 58.303C156.288 46.2233 156.288 34.1477 156.308 22.0679C152.041 22.0515 147.777 22.0433 143.51 22.072Z" fill="white"/>
<path d="M65.0322 10.5793C76.2705 10.5957 87.5088 10.608 98.7471 10.5752C98.8562 14.2049 98.7794 17.8386 98.7996 21.4724C87.5209 21.4806 76.2382 21.4765 64.9595 21.4765C64.9877 17.8427 64.8746 14.209 65.0322 10.5793Z" fill="#F04F23"/>
<path d="M64.9229 28.9982C76.2096 28.9243 87.4964 28.9818 98.7832 28.9736C98.7913 32.5745 98.8317 36.1795 98.7751 39.7805C87.5368 39.7353 76.2945 39.723 65.0562 39.7887C64.8259 36.1959 65.0441 32.595 64.9229 28.9982Z" fill="#F04F23"/>
<path d="M64.9634 47.6931C76.2421 47.5823 87.5248 47.6315 98.8035 47.6685C98.759 51.3064 98.8924 54.9484 98.7267 58.5862C87.4925 58.5493 76.2582 58.537 65.024 58.5903C64.8825 54.9607 64.9795 51.3269 64.9634 47.6931Z" fill="#F04F23"/>
</svg>
