<svg width="42" height="48" viewBox="0 0 42 48" fill="none" xmlns="http://www.w3.org/2000/svg">
<g clip-path="url(#clip0)">
<path d="M37.5 3H4.5C3.30653 3 2.16193 3.47411 1.31802 4.31802C0.474106 5.16193 0 6.30653 0 7.5L0 40.5C0 41.6935 0.474106 42.8381 1.31802 43.682C2.16193 44.5259 3.30653 45 4.5 45H17.3672V30.7209H11.4609V24H17.3672V18.8775C17.3672 13.0509 20.8359 9.8325 26.1488 9.8325C28.6931 9.8325 31.3538 10.2863 31.3538 10.2863V16.005H28.4222C25.5338 16.005 24.6328 17.7975 24.6328 19.6359V24H31.0809L30.0497 30.7209H24.6328V45H37.5C38.6935 45 39.8381 44.5259 40.682 43.682C41.5259 42.8381 42 41.6935 42 40.5V7.5C42 6.30653 41.5259 5.16193 40.682 4.31802C39.8381 3.47411 38.6935 3 37.5 3V3Z" fill="#162DD3"/>
</g>
<defs>
<clipPath id="clip0">
<rect width="42" height="48" fill="white"/>
</clipPath>
</defs>
</svg>
