<svg width="32" height="32" viewBox="0 0 32 32" fill="none" xmlns="http://www.w3.org/2000/svg">
<g clip-path="url(#clip0_167_4)">
<path d="M21.0093 8.26724L21.1464 11.002C21.1894 11.8516 20.3679 12.4538 19.619 12.1215L17.2095 11.0512C16.829 10.8824 16.5708 10.5048 16.5399 10.074L16.3355 7.23821C16.2723 6.36606 17.1221 5.74385 17.8845 6.10415L20.3612 7.27544C20.7377 7.45359 20.9878 7.83649 21.0093 8.26857V8.26724ZM25.7973 9.53692L23.3206 8.36563C22.5596 8.00533 21.7098 8.62887 21.7716 9.49969L21.976 12.3355C22.0069 12.7663 22.2651 13.1438 22.6456 13.3127L25.0551 14.3829C25.804 14.7153 26.6242 14.1144 26.5825 13.2635L26.4454 10.5287C26.4239 10.0966 26.1738 9.71374 25.7973 9.53559V9.53692ZM31.2132 11.8396L28.7365 10.6683C27.9755 10.308 27.1257 10.9316 27.1876 11.8024L27.392 14.6382C27.4229 15.069 27.681 15.4465 28.0616 15.6154L30.471 16.6856C31.22 17.018 32.0402 16.4171 31.9985 15.5662L31.8613 12.8314C31.8398 12.3993 31.5897 12.0164 31.2132 11.8383V11.8396ZM14.117 6.10282L11.6403 7.27411C11.2638 7.45226 11.0137 7.83516 10.9922 8.26724L10.855 11.002C10.812 11.8516 11.6335 12.4538 12.3825 12.1215L14.7919 11.0512C15.1725 10.8824 15.4306 10.5048 15.4615 10.074L15.6659 7.23821C15.7291 6.36606 14.8793 5.74385 14.117 6.10415V6.10282ZM8.68085 8.36563L6.20415 9.53692C5.82766 9.71507 5.57757 10.098 5.55606 10.5301L5.41891 13.2648C5.37589 14.1144 6.19742 14.7166 6.94635 14.3843L9.35583 13.314C9.73634 13.1452 9.9945 12.7676 10.0254 12.3368L10.2298 9.50102C10.293 8.62887 9.44323 8.00666 8.68085 8.36696V8.36563ZM3.26356 10.6683L0.786853 11.8396C0.410372 12.0178 0.160281 12.4007 0.138767 12.8327L0.0016207 15.5675C-0.0414057 16.4171 0.78013 17.0193 1.52906 16.687L3.93854 15.6167C4.31905 15.4479 4.57721 15.0703 4.60814 14.6395L4.81251 11.8037C4.87571 10.9316 4.02593 10.3094 3.26356 10.6696V10.6683ZM20.3612 14.1436L17.8845 12.9723C17.1234 12.612 16.2737 13.2356 16.3355 14.1064L16.5399 16.9422C16.5708 17.373 16.829 17.7506 17.2095 17.9194L19.619 18.9897C20.3679 19.322 21.1881 18.7211 21.1464 17.8702L21.0093 15.1354C20.9878 14.7034 20.7377 14.3205 20.3612 14.1423V14.1436ZM25.7973 16.4064L23.3206 15.2352C22.5596 14.8749 21.7098 15.4984 21.7716 16.3692L21.976 19.205C22.0069 19.6358 22.2651 20.0134 22.6456 20.1822L25.0551 21.2525C25.804 21.5848 26.6242 20.9839 26.5825 20.133L26.4454 17.3982C26.4239 16.9662 26.1738 16.5833 25.7973 16.4051V16.4064ZM14.117 12.9737L11.6403 14.145C11.2638 14.3231 11.0137 14.706 10.9922 15.1381L10.855 17.8729C10.812 18.7224 11.6335 19.3247 12.3825 18.9923L14.7919 17.9221C15.1725 17.7532 15.4306 17.3756 15.4615 16.9449L15.6659 14.1091C15.7291 13.2369 14.8793 12.6147 14.117 12.975V12.9737ZM8.68085 15.2352L6.20415 16.4064C5.82766 16.5846 5.57757 16.9675 5.55606 17.3996L5.41891 20.1344C5.37589 20.9839 6.19742 21.5862 6.94635 21.2538L9.35583 20.1836C9.73634 20.0147 9.9945 19.6371 10.0254 19.2064L10.2298 16.3705C10.293 15.4984 9.44323 14.8762 8.68085 15.2365V15.2352ZM20.3612 21.0597L17.8845 19.8884C17.1234 19.5281 16.2737 20.1516 16.3355 21.0225L16.5399 23.8583C16.5708 24.289 16.829 24.6666 17.2095 24.8355L19.619 25.9057C20.3679 26.2381 21.1881 25.6372 21.1464 24.7863L21.0093 22.0515C20.9878 21.6194 20.7377 21.2365 20.3612 21.0584V21.0597ZM14.117 19.8884L11.6403 21.0597C11.2638 21.2378 11.0137 21.6207 10.9922 22.0528L10.855 24.7876C10.812 25.6372 11.6335 26.2394 12.3825 25.907L14.7919 24.8368C15.1725 24.668 15.4306 24.2904 15.4615 23.8596L15.6659 21.0238C15.7291 20.1516 14.8793 19.5294 14.117 19.8897V19.8884Z" fill="url(#paint0_radial_167_4)"/>
</g>
<defs>
<radialGradient id="paint0_radial_167_4" cx="0" cy="0" r="1" gradientUnits="userSpaceOnUse" gradientTransform="translate(16.0007 15.9996) scale(13.3852 13.2352)">
<stop stop-color="#E84E1B"/>
<stop offset="1" stop-color="#BD1622"/>
</radialGradient>
<clipPath id="clip0_167_4">
<rect width="32" height="20" fill="white" transform="translate(0 6)"/>
</clipPath>
</defs>
</svg>
