<svg width="50" height="50" viewBox="0 0 50 50" fill="none" xmlns="http://www.w3.org/2000/svg">
<g clip-path="url(#clip0_51_2)">
<path d="M28.7382 11.39C27.5268 11.058 26.269 10.8896 25 10.8896C17.2194 10.8896 10.8896 17.2195 10.8896 25.0001C10.8896 32.7806 17.2194 39.1105 25 39.1105C32.7806 39.1105 39.1104 32.7806 39.1104 25.0001C39.1104 23.731 38.9421 22.4733 38.6101 21.2619C38.3819 20.4296 38.8717 19.5701 39.7039 19.342C40.5356 19.1139 41.3957 19.6036 41.6238 20.4358C42.0296 21.9164 42.2354 23.452 42.2354 25.0001C42.2354 34.5037 34.5036 42.2355 25 42.2355C15.4964 42.2355 7.76455 34.5037 7.76455 25.0001C7.76455 15.4964 15.4964 7.76461 25 7.76461C26.5481 7.76461 28.0837 7.97037 29.5643 8.37623C30.2583 8.56646 30.7142 9.19595 30.7141 9.88248C30.7141 10.0191 30.6959 10.158 30.6581 10.2961C30.4301 11.1284 29.5706 11.6184 28.7382 11.39ZM47.033 16.8399C46.2056 17.0849 45.7333 17.9542 45.9783 18.7817C46.5733 20.7915 46.875 22.8835 46.875 25.0001C46.875 37.062 37.0619 46.8751 25 46.8751C12.9381 46.8751 3.125 37.062 3.125 25.0001C3.125 12.9381 12.9381 3.12505 25 3.12505C27.1166 3.12505 29.2087 3.42671 31.2181 4.02164C32.0456 4.26675 32.9148 3.79429 33.1599 2.96695C33.2036 2.819 33.2245 2.66988 33.2245 2.5231C33.2247 1.84879 32.7848 1.22642 32.1052 1.02515C29.8075 0.344879 27.4171 5.47328e-05 25 5.47328e-05C18.3223 5.47328e-05 12.0441 2.60054 7.32227 7.32232C2.60049 12.0443 0 18.3223 0 25.0001C0 31.6778 2.60049 37.9559 7.32227 42.6778C12.044 47.3997 18.3223 50.0001 25 50.0001C31.6777 50.0001 37.9558 47.3996 42.6777 42.6778C47.3995 37.9559 50 31.6778 50 25.0001C50 22.5832 49.6551 20.1925 48.9748 17.8946C48.7299 17.0671 47.8604 16.5953 47.033 16.8399ZM25 18.7501C25.2298 18.7501 25.4618 18.7628 25.6897 18.7878C26.5479 18.8822 27.3193 18.2628 27.4133 17.405C27.5074 16.5472 26.8884 15.7755 26.0306 15.6815C25.6897 15.644 25.3432 15.6251 25 15.6251C19.8306 15.6251 15.625 19.8306 15.625 25.0001C15.625 30.1695 19.8306 34.3751 25 34.3751C30.1694 34.3751 34.375 30.1695 34.375 25.0001C34.375 24.1371 33.6755 23.4376 32.8125 23.4376C31.9495 23.4376 31.25 24.1371 31.25 25.0001C31.25 28.4463 28.4463 31.2501 25 31.2501C21.5537 31.2501 18.75 28.4463 18.75 25.0001C18.75 21.5538 21.5537 18.7501 25 18.7501ZM32.9779 14.8127L33.7563 7.00533C33.792 6.64615 33.951 6.3106 34.2062 6.05543L39.8041 0.457672C40.2354 0.0265196 40.8777 -0.114398 41.4499 0.0966368C42.0219 0.307672 42.4189 0.832281 42.4667 1.44019L42.9105 7.08961L48.5599 7.53336C49.1678 7.58111 49.6924 7.97818 49.9034 8.55015C50.1145 9.12222 49.9735 9.7648 49.5424 10.196L43.9445 15.7937C43.6895 16.0489 43.3538 16.2079 42.9947 16.2436L35.1876 17.0223L26.1049 26.1049C25.7997 26.41 25.3999 26.5626 25 26.5626C24.6 26.5626 24.2003 26.41 23.8952 26.1048C23.285 25.4947 23.285 24.5053 23.8952 23.8952L32.9779 14.8127ZM36.2215 13.7788L42.1293 13.1895L44.9354 10.3834L41.3351 10.1005C40.5687 10.0403 39.96 9.4315 39.8997 8.66519L39.6169 5.06451L36.8105 7.87076L36.2215 13.7788Z" fill="#BE1622"/>
</g>
<defs>
<clipPath id="clip0_51_2">
<rect width="50" height="50" fill="white"/>
</clipPath>
</defs>
</svg>
