<?xml version="1.0" encoding="UTF-8"?>
<svg id="Layer_2" data-name="Layer 2" xmlns="http://www.w3.org/2000/svg" viewBox="0 0 238 150.44">
  <defs>
    <style>
      .cls-1 {
        fill: #fff;
        stroke-width: 0px;
      }
    </style>
  </defs>
  <g id="Layer_1-2" data-name="Layer 1">
    <path class="cls-1" d="M156.25,17.06l1.02,20.57c.32,6.39-5.79,10.92-11.36,8.42l-17.92-8.05c-2.83-1.27-4.75-4.11-4.98-7.35l-1.52-21.33c-.47-6.56,5.85-11.24,11.52-8.53l18.42,8.81c2.8,1.34,4.66,4.22,4.82,7.47ZM191.86,26.61l-18.42-8.81c-5.66-2.71-11.98,1.98-11.52,8.53l1.52,21.33c.23,3.24,2.15,6.08,4.98,7.35l17.92,8.05c5.57,2.5,11.67-2.02,11.36-8.42l-1.02-20.57c-.16-3.25-2.02-6.13-4.82-7.47ZM232.14,43.93l-18.42-8.81c-5.66-2.71-11.98,1.98-11.52,8.53l1.52,21.33c.23,3.24,2.15,6.08,4.98,7.35l17.92,8.05c5.57,2.5,11.67-2.02,11.36-8.42l-1.02-20.57c-.16-3.25-2.02-6.13-4.82-7.47ZM104.99.78l-18.42,8.81c-2.8,1.34-4.66,4.22-4.82,7.47l-1.02,20.57c-.32,6.39,5.79,10.92,11.36,8.42l17.92-8.05c2.83-1.27,4.75-4.11,4.98-7.35l1.52-21.33c.47-6.56-5.85-11.24-11.52-8.53ZM64.56,17.8l-18.42,8.81c-2.8,1.34-4.66,4.22-4.82,7.47l-1.02,20.57c-.32,6.39,5.79,10.92,11.36,8.42l17.92-8.05c2.83-1.27,4.75-4.11,4.98-7.35l1.52-21.33c.47-6.56-5.85-11.24-11.52-8.53ZM24.27,35.12l-18.42,8.81c-2.8,1.34-4.66,4.22-4.82,7.47L.01,71.97c-.32,6.39,5.79,10.92,11.36,8.42l17.92-8.05c2.83-1.27,4.75-4.11,4.98-7.35l1.52-21.33c.47-6.56-5.85-11.24-11.52-8.53ZM151.43,61.26l-18.42-8.81c-5.66-2.71-11.98,1.98-11.52,8.53l1.52,21.33c.23,3.24,2.15,6.08,4.98,7.35l17.92,8.05c5.57,2.5,11.67-2.02,11.36-8.42l-1.02-20.57c-.16-3.25-2.02-6.13-4.82-7.47ZM191.86,78.28l-18.42-8.81c-5.66-2.71-11.98,1.98-11.52,8.53l1.52,21.33c.23,3.24,2.15,6.08,4.98,7.35l17.92,8.05c5.57,2.5,11.67-2.02,11.36-8.42l-1.02-20.57c-.16-3.25-2.02-6.13-4.82-7.47ZM104.99,52.46l-18.42,8.81c-2.8,1.34-4.66,4.22-4.82,7.47l-1.02,20.57c-.32,6.39,5.79,10.92,11.36,8.42l17.92-8.05c2.83-1.27,4.75-4.11,4.98-7.35l1.52-21.33c.47-6.56-5.85-11.24-11.52-8.53ZM64.56,69.47l-18.42,8.81c-2.8,1.34-4.66,4.22-4.82,7.47l-1.02,20.57c-.32,6.39,5.79,10.92,11.36,8.42l17.92-8.05c2.83-1.27,4.75-4.11,4.98-7.35l1.52-21.33c.47-6.56-5.85-11.24-11.52-8.53ZM151.43,113.28l-18.42-8.81c-5.66-2.71-11.98,1.98-11.52,8.53l1.52,21.33c.23,3.24,2.15,6.08,4.98,7.35l17.92,8.05c5.57,2.5,11.67-2.02,11.36-8.42l-1.02-20.57c-.16-3.25-2.02-6.13-4.82-7.47ZM104.99,104.47l-18.42,8.81c-2.8,1.34-4.66,4.22-4.82,7.47l-1.02,20.57c-.32,6.39,5.79,10.92,11.36,8.42l17.92-8.05c2.83-1.27,4.75-4.11,4.98-7.35l1.52-21.33c.47-6.56-5.85-11.24-11.52-8.53Z"/>
  </g>
</svg>