<svg width="206" height="62" viewBox="0 0 206 62" fill="none" xmlns="http://www.w3.org/2000/svg">
<mask id="mask0_23_1315" style="mask-type:luminance" maskUnits="userSpaceOnUse" x="10" y="9" width="186" height="45">
<path d="M195.4 9H10V54H195.4V9Z" fill="white"/>
</mask>
<g mask="url(#mask0_23_1315)">
<path d="M9.1001 27.3975C9.55065 27.3975 10.0024 27.4104 10.4529 27.4114C11.5069 27.4114 12.5609 27.4114 13.6138 27.4114C13.8014 27.4114 13.8582 27.4618 13.8558 27.6354C13.8454 28.2386 13.8558 28.8418 13.8558 29.4461V29.6947L13.9184 29.7204C13.967 29.6604 14.0203 29.6025 14.0655 29.5393C14.7209 28.5373 15.7277 27.7734 16.9182 27.375C17.488 27.1731 18.0968 27.0825 18.7062 27.109C19.3157 27.1354 19.9126 27.2783 20.4594 27.5286C21.0063 27.7789 21.4912 28.1312 21.8836 28.5634C22.276 28.9955 22.5675 29.4982 22.7396 30.0397C23.2282 31.3192 23.4112 32.6816 23.2758 34.0329C23.2201 35.3583 22.8307 36.6534 22.1384 37.815C21.6907 38.6116 20.9895 39.2618 20.1294 39.6778C19.2694 40.0937 18.292 40.2555 17.3294 40.1411C16.1532 40.0341 15.0539 39.5515 14.2207 38.7761C14.1249 38.6817 14.0352 38.5823 13.952 38.4782L13.8697 38.5211V44.4472H11.4675C11.4675 44.3861 11.4513 44.3282 11.4513 44.2693C11.456 39.5893 11.4598 34.9107 11.4629 30.2336C11.4645 29.8783 11.4343 29.5235 11.3726 29.1729C11.3538 28.9178 11.2361 28.6775 11.0412 28.4963C10.8463 28.315 10.5873 28.2048 10.3116 28.1861C9.99945 28.1351 9.68421 28.1018 9.36765 28.0864C9.20318 28.0768 9.15106 28.0222 9.1499 27.8722C9.14137 27.7286 9.12475 27.5855 9.1001 27.4436V27.3975ZM13.8489 34.0404C13.8489 35.1622 13.8489 36.2829 13.8558 37.4047C13.8598 37.4661 13.877 37.5262 13.9065 37.5814C13.9359 37.6366 13.977 37.6858 14.0273 37.7261C14.9003 38.3681 15.9375 38.7909 17.0387 38.9539C17.4556 39.0271 17.8852 39.0081 18.2926 38.8984C18.7 38.7887 19.0737 38.5915 19.383 38.3229C19.8798 37.8589 20.2288 37.2772 20.3918 36.6418C20.8459 35.0771 20.9073 33.4371 20.5713 31.8472C20.433 31.0202 20.1005 30.2314 19.5973 29.5361C19.3119 29.0982 18.8742 28.7629 18.356 28.5851C17.8377 28.4074 17.2695 28.3978 16.7445 28.5579C15.5956 28.8717 14.5992 29.5431 13.9242 30.4586C13.8725 30.5448 13.8488 30.643 13.8558 30.7414C13.8558 31.8397 13.8558 32.9379 13.8558 34.0361" fill="#0065FF"/>
<path d="M79.5156 22.3801V21.6934H84.2644V29.6862C84.5968 29.3176 84.8794 28.9555 85.213 28.6405C85.8678 27.9694 86.718 27.4873 87.6615 27.2518C88.6051 27.0164 89.602 27.0376 90.5328 27.313C91.1372 27.491 91.6933 27.7867 92.1638 28.1802C92.6343 28.5736 93.0083 29.0558 93.2605 29.5941C93.7362 30.4914 94.0055 31.4702 94.0516 32.4687C94.201 33.9521 93.9827 35.4476 93.4134 36.8412C92.9656 37.9868 92.1072 38.9559 90.9811 39.5873C90.0132 40.0815 88.905 40.2896 87.8054 40.1837C86.7059 40.0778 85.6678 39.6629 84.8308 38.9948C84.6675 38.863 84.5181 38.7151 84.3548 38.5834C84.3016 38.5392 84.2338 38.5131 84.1625 38.5094C84.1347 38.5094 84.0965 38.6048 84.0837 38.6605C83.9969 39.0698 83.9193 39.4801 83.8254 39.8884C83.8104 39.9516 83.7316 40.0501 83.6807 40.0512C83.0633 40.0619 82.4471 40.0587 81.7962 40.0587V39.7909C81.7962 34.7194 81.7962 29.6512 81.7962 24.5862C81.7845 24.1011 81.7459 23.6169 81.6804 23.1355C81.6714 23.0058 81.6145 22.883 81.5192 22.7876C81.4238 22.6922 81.2959 22.63 81.1568 22.6116C80.7074 22.5312 80.2546 22.4723 79.8017 22.4059C79.7125 22.393 79.621 22.3898 79.5203 22.3812M84.2772 34.0598C84.2772 35.1816 84.2772 36.3034 84.2772 37.4251C84.2765 37.4718 84.2859 37.518 84.3048 37.5613C84.3237 37.6045 84.3517 37.6438 84.3872 37.6769C85.2473 38.2981 86.257 38.7179 87.3303 38.9005C88.1 39.0818 88.9159 38.9772 89.6033 38.6092C90.2908 38.2412 90.7953 37.6389 91.0089 36.9312C91.2997 36.124 91.4502 35.2792 91.4548 34.4284C91.5238 33.2691 91.4068 32.1069 91.1073 30.9794C90.9489 30.3028 90.5787 29.6842 90.0429 29.2009C89.6722 28.9086 89.2301 28.7042 88.7548 28.6054C88.2796 28.5067 87.7855 28.5165 87.3152 28.6341C86.1781 28.8665 85.1642 29.4588 84.4486 30.3087C84.321 30.4395 84.2544 30.6117 84.2633 30.7876C84.2725 31.8784 84.2633 32.9691 84.2633 34.0598" fill="#253858"/>
<path d="M107.014 39.1034C107.02 39.1881 107.027 39.2706 107.034 39.3541C107.085 39.9531 107.089 39.9702 106.447 40.0881C106.065 40.1665 105.673 40.2003 105.282 40.1888C104.835 40.1648 104.409 40.0096 104.064 39.7458C103.719 39.482 103.474 39.1234 103.365 38.722C103.303 38.5634 103.257 38.4006 103.196 38.2109C102.93 38.4252 102.682 38.6395 102.421 38.8356C101.611 39.4888 100.635 39.9395 99.5834 40.1448C98.7552 40.3036 97.894 40.2186 97.1206 39.902C96.3471 39.5854 95.7001 39.0529 95.2701 38.3791C94.7832 37.5379 94.6708 36.5539 94.9571 35.6372C95.2434 34.7204 95.9056 33.9434 96.8025 33.472C97.7036 33.0076 98.7022 32.728 99.7305 32.6523C100.592 32.5698 101.461 32.5548 102.327 32.5109C102.426 32.5109 102.524 32.5109 102.652 32.5109C102.73 31.4697 102.648 30.4235 102.407 29.4038C102.284 28.9687 101.998 28.5879 101.601 28.3287C101.204 28.0696 100.72 27.9486 100.236 27.9873C99.8132 28.0027 99.3947 28.0683 98.9904 28.1823C98.5723 28.2936 98.2045 28.5273 97.9422 28.8484C97.6799 29.1695 97.5373 29.5606 97.5357 29.9631C97.5218 30.1152 97.5125 30.2684 97.5009 30.4345H95.8284V30.1441C95.8284 29.5409 95.8284 28.9366 95.8342 28.3334C95.8359 28.2886 95.8484 28.2448 95.8709 28.2051C95.8933 28.1654 95.9251 28.1309 95.9639 28.1041C97.6434 27.377 99.4895 27.0404 101.342 27.1238C102.079 27.1522 102.799 27.3397 103.444 27.6713C103.88 27.9113 104.25 28.2432 104.521 28.6402C104.793 29.0371 104.96 29.4878 105.007 29.9556C105.066 30.3461 105.096 30.7399 105.096 31.1341C105.104 32.9288 105.086 34.7234 105.107 36.5181C105.113 37.1114 105.17 37.7033 105.279 38.2881C105.296 38.5245 105.408 38.7464 105.593 38.9102C105.778 39.0739 106.023 39.1677 106.279 39.1731C106.526 39.1698 106.771 39.1465 107.014 39.1034ZM102.648 33.2106C101.503 33.1367 100.354 33.3045 99.2893 33.7013C98.6857 33.9238 98.1769 34.3221 97.8398 34.8359C97.5027 35.3497 97.3557 35.9511 97.421 36.5491C97.4384 36.8894 97.5327 37.2225 97.6977 37.527C97.8628 37.8315 98.095 38.1006 98.3794 38.317C98.6637 38.5334 98.994 38.6923 99.3488 38.7835C99.7036 38.8747 100.075 38.896 100.439 38.8463C101.169 38.7104 101.862 38.4396 102.477 38.0502C102.534 38.0218 102.581 37.9782 102.612 37.9249C102.642 37.8717 102.655 37.8112 102.648 37.7513C102.648 36.3745 102.648 34.9988 102.648 33.622C102.648 33.4988 102.648 33.3766 102.648 33.2106Z" fill="#253858"/>
<path d="M138.701 30.4447H137.055C137.048 30.3793 137.036 30.3215 137.036 30.2626C137.036 29.6197 137.036 28.9768 137.036 28.334C137.038 28.2893 137.05 28.2454 137.072 28.2057C137.094 28.166 137.126 28.1315 137.165 28.1047C138.842 27.3718 140.69 27.0374 142.542 27.1318C143.05 27.17 143.55 27.2668 144.031 27.4201C144.627 27.603 145.152 27.9445 145.539 28.4019C145.926 28.8593 146.159 29.4122 146.208 29.9915C146.252 30.2976 146.272 30.6063 146.269 30.9151C146.269 32.819 146.258 34.7218 146.279 36.6258C146.283 37.1654 146.343 37.7035 146.456 38.2329C146.466 38.3958 146.517 38.5542 146.607 38.695C146.696 38.8357 146.82 38.9547 146.969 39.042C147.118 39.1293 147.288 39.1824 147.463 39.1969C147.639 39.2115 147.816 39.1869 147.979 39.1254C148.044 39.1126 148.109 39.1018 148.202 39.0858C148.226 39.3397 148.256 39.5818 148.269 39.824C148.265 39.8512 148.254 39.877 148.236 39.8993C148.219 39.9215 148.196 39.9394 148.169 39.9515C147.519 40.1866 146.813 40.2533 146.125 40.1443C145.777 40.0691 145.455 39.9122 145.192 39.689C144.928 39.4657 144.731 39.1834 144.619 38.8693C144.529 38.6626 144.465 38.4408 144.382 38.2093C144.128 38.4151 143.887 38.6229 143.632 38.8158C142.828 39.4896 141.839 39.9461 140.773 40.1358C139.995 40.2952 139.183 40.235 138.442 39.963C137.701 39.691 137.066 39.2197 136.618 38.6101C136.321 38.1875 136.122 37.7123 136.034 37.2147C135.947 36.7171 135.972 36.2081 136.109 35.7201C136.246 35.2321 136.492 34.7759 136.83 34.3807C137.168 33.9854 137.592 33.6597 138.074 33.4243C138.954 32.9881 139.921 32.7244 140.916 32.6497C141.795 32.5683 142.681 32.5522 143.564 32.5083C143.638 32.5083 143.711 32.5083 143.772 32.5083C143.794 32.4772 143.812 32.4654 143.812 32.4536C143.794 31.6501 143.822 30.8465 143.744 30.0451C143.741 29.6626 143.626 29.288 143.411 28.9616C143.196 28.6351 142.888 28.3692 142.522 28.1926C142.179 28.0446 141.807 27.9627 141.428 27.9519C141.05 27.941 140.673 28.0014 140.321 28.1293C139.064 28.5354 138.783 29.1108 138.691 30.2829C138.691 30.3279 138.691 30.3729 138.691 30.4426M143.803 33.2047C142.755 33.144 141.704 33.2784 140.714 33.6001C140.086 33.7895 139.541 34.1623 139.162 34.6625C138.782 35.1627 138.589 35.7633 138.61 36.374C138.606 36.7291 138.686 37.0808 138.842 37.405C138.999 37.7292 139.23 38.0182 139.518 38.2522C139.807 38.4862 140.147 38.6598 140.515 38.7609C140.883 38.8621 141.271 38.8885 141.651 38.8383C142.363 38.7004 143.04 38.437 143.645 38.0626C143.707 38.0321 143.757 37.9852 143.79 37.9278C143.822 37.8705 143.835 37.8054 143.827 37.7411C143.821 36.3108 143.827 34.8804 143.827 33.4501C143.827 33.3751 143.82 33.3001 143.815 33.2004" fill="#253858"/>
<path d="M129.915 32.4973C129.997 31.4536 129.914 30.4045 129.67 29.3827C129.537 28.9552 129.249 28.5828 128.856 28.3271C128.462 28.0714 127.986 27.9478 127.506 27.977C126.946 27.972 126.393 28.0929 125.894 28.3295C125.602 28.4665 125.352 28.6698 125.168 28.9203C124.984 29.1708 124.871 29.4604 124.841 29.762C124.805 29.9816 124.79 30.2045 124.764 30.4381H123.142C123.131 30.3886 123.123 30.3385 123.119 30.2881C123.119 29.6302 123.113 28.9723 123.125 28.3145C123.13 28.2709 123.146 28.229 123.171 28.1919C123.196 28.1548 123.23 28.1235 123.271 28.1002C124.565 27.5524 125.954 27.2225 127.373 27.1263C128.157 27.0681 128.946 27.1267 129.71 27.2998C130.423 27.4462 131.065 27.8058 131.534 28.3231C132.004 28.8405 132.277 29.4866 132.309 30.1616C132.341 30.5077 132.355 30.8559 132.357 31.2031C132.365 33.1991 132.357 35.1952 132.379 37.1913C132.389 37.5464 132.438 37.8996 132.525 38.2456C132.538 38.4017 132.59 38.5531 132.675 38.6882C132.761 38.8233 132.879 38.9385 133.02 39.0252C133.161 39.112 133.322 39.1679 133.49 39.1887C133.657 39.2095 133.828 39.1948 133.989 39.1456C134.071 39.1327 134.152 39.1145 134.281 39.0909C134.306 39.3716 134.332 39.6427 134.358 39.9256C133.576 40.2465 132.695 40.2922 131.879 40.0541C131.498 39.8811 131.171 39.6233 130.925 39.3041C130.679 38.9849 130.523 38.6141 130.47 38.2252C130.086 38.5209 129.727 38.8188 129.343 39.0823C128.499 39.7136 127.473 40.1005 126.392 40.1945C125.426 40.3012 124.452 40.0666 123.665 39.5376C122.878 39.0086 122.336 38.2241 122.147 37.3413C121.968 36.5132 122.105 35.6532 122.535 34.9083C122.966 34.1635 123.662 33.5802 124.506 33.2581C125.425 32.8811 126.409 32.659 127.412 32.6023C128.169 32.5434 128.93 32.5391 129.688 32.5091C129.753 32.5091 129.818 32.5027 129.912 32.4973M129.912 33.2045C128.802 33.1375 127.689 33.2932 126.65 33.6609C126.05 33.8687 125.537 34.2475 125.185 34.7426C124.833 35.2377 124.66 35.8235 124.691 36.4156C124.69 36.768 124.772 37.1163 124.931 37.4368C125.089 37.7572 125.321 38.0422 125.609 38.2723C125.898 38.5024 126.237 38.6722 126.603 38.77C126.969 38.8678 127.353 38.8914 127.73 38.8391C128.434 38.7068 129.103 38.4476 129.699 38.0763C129.768 38.0449 129.826 37.9949 129.864 37.9327C129.902 37.8706 129.919 37.7992 129.912 37.7281C129.904 36.3041 129.912 34.8813 129.912 33.4573V33.2045Z" fill="#253858"/>
<path d="M30.9188 40.1486C29.4244 40.1978 27.9617 39.7427 26.8033 38.868C25.6449 37.9934 24.8698 36.7589 24.6226 35.3947C24.3653 34.4276 24.322 33.4224 24.4952 32.4394C24.6683 31.4564 25.0544 30.5159 25.6302 29.6743C26.1137 28.9596 26.7726 28.3606 27.5535 27.9258C28.3344 27.4911 29.2152 27.233 30.1242 27.1726C31.5361 26.9987 32.9707 27.26 34.2059 27.9161C34.9399 28.3224 35.5762 28.8633 36.0755 29.5057C36.5749 30.148 36.9268 30.8782 37.1096 31.6511C37.4026 32.6094 37.484 33.6124 37.3489 34.6003C37.2138 35.5883 36.8649 36.541 36.3231 37.4015C35.8705 38.151 35.2294 38.7887 34.454 39.2605C33.6787 39.7324 32.7918 40.0245 31.8685 40.1122C31.7785 40.128 31.6877 40.1394 31.5964 40.1465C31.3717 40.1465 31.1458 40.1465 30.9199 40.1465M34.8719 33.3965C34.836 33.0804 34.7989 32.5168 34.7028 31.9618C34.5517 30.8693 34.0994 29.831 33.3893 28.9468C33.1551 28.6363 32.8547 28.3734 32.5065 28.1743C32.1584 27.9751 31.7699 27.8439 31.365 27.7887C30.96 27.7335 30.5472 27.7555 30.1517 27.8533C29.7563 27.9512 29.3867 28.1227 29.0656 28.3576C28.4314 28.8317 27.9472 29.4555 27.6641 30.1629C26.9127 31.9197 26.7445 33.8438 27.1811 35.6893C27.3702 36.7229 27.8495 37.6924 28.571 38.5008C29.0367 39.0265 29.6941 39.3766 30.4194 39.4851C31.1447 39.5936 31.8879 39.4531 32.5091 39.0901C33.1292 38.7029 33.6252 38.1685 33.9453 37.5429C34.6005 36.2465 34.9179 34.827 34.8719 33.3965Z" fill="#0065FF"/>
<path d="M112.133 39.0667H120.993V39.9131H109.189C109.132 39.5487 109.217 39.1773 109.43 38.8663C112.192 35.3385 114.939 31.8027 117.674 28.2592C117.706 28.2185 117.735 28.1756 117.789 28.0974H117.484C115.786 28.0974 114.089 28.0974 112.387 28.1027C112.047 28.1027 111.706 28.1488 111.366 28.1724C111.255 28.174 111.149 28.2138 111.069 28.2839C110.988 28.3541 110.939 28.4496 110.93 28.5517C110.895 28.7807 110.876 29.0115 110.871 29.2427C110.862 29.5267 110.871 29.8106 110.871 30.1085H109.543V27.3945H120.644C120.679 27.5792 120.673 27.7684 120.628 27.9511C120.583 28.1337 120.499 28.3062 120.38 28.4585C117.667 31.9235 114.968 35.397 112.282 38.8792C112.244 38.9285 112.203 38.9756 112.13 39.0667" fill="#253858"/>
<path d="M149.145 28.0345V27.3981H153.9V29.6652C155.148 27.9017 156.745 26.827 159.158 27.1892V30.6338H157.815C157.767 30.291 157.732 29.9395 157.666 29.5935C157.559 29.0374 157.464 28.9667 156.855 28.9763C156.344 28.995 155.844 29.1237 155.396 29.3523C154.948 29.5809 154.563 29.903 154.273 30.2931C154.015 30.5843 153.882 30.953 153.898 31.3292C153.921 33.186 153.898 35.0427 153.912 36.9006C153.912 37.3624 153.963 37.8252 154.003 38.286C154.002 38.4785 154.078 38.6647 154.217 38.8077C154.357 38.9508 154.549 39.0402 154.756 39.0585C155.192 39.1185 155.632 39.1538 156.071 39.1967C156.218 39.2106 156.366 39.2128 156.523 39.2213V39.9177H149.137C149.128 39.7188 149.131 39.5195 149.147 39.321C149.147 39.2738 149.28 39.2138 149.359 39.202C149.77 39.1452 150.186 39.111 150.598 39.052C150.806 39.0404 151 38.9566 151.143 38.8174C151.287 38.6782 151.367 38.4941 151.37 38.302C151.406 37.8735 151.456 37.4395 151.459 37.0077C151.468 34.772 151.468 32.5367 151.459 30.3017C151.459 29.8249 151.393 29.347 151.343 28.8713C151.336 28.7338 151.277 28.6028 151.178 28.5003C151.078 28.3979 150.943 28.3303 150.796 28.3088C150.26 28.2092 149.719 28.1288 149.152 28.0367" fill="#253858"/>
<path d="M37.229 22.3294V21.7155C37.324 21.7155 37.4051 21.7037 37.4873 21.7037C38.8668 21.7037 40.2462 21.7091 41.6257 21.6973C41.8712 21.6973 41.9129 21.7755 41.9129 21.978C41.9129 24.7694 41.9203 27.5612 41.9349 30.3533C41.9442 33.4155 41.9535 36.478 41.9628 39.5408C41.9628 39.8837 41.9627 39.8837 41.5956 39.8837H39.366C39.366 39.7926 39.3521 39.7187 39.3521 39.6448C39.3625 37.9583 39.3706 36.273 39.3857 34.5866C39.3972 33.3801 39.4239 32.1737 39.4389 30.9683C39.4667 28.7108 39.4945 26.4533 39.5107 24.1958C39.5086 23.91 39.4737 23.6252 39.4065 23.3462C39.3709 23.1415 39.2676 22.9521 39.1107 22.8039C38.9539 22.6558 38.7513 22.5563 38.5309 22.5191C38.1093 22.4344 37.6784 22.3926 37.2313 22.3283" fill="#0065FF"/>
<path d="M77.3877 27.4079C77.1155 27.8889 76.8341 28.3347 76.6024 28.8007C75.2558 31.5236 73.9153 34.2493 72.581 36.9779C71.6081 38.96 70.6444 40.9422 69.6634 42.9243C69.5316 43.29 69.2952 43.6159 68.9793 43.8673C68.6634 44.1188 68.2799 44.2864 67.8693 44.3525C67.5123 44.3923 67.1528 44.4099 66.7933 44.405C66.0821 44.405 65.3721 44.3814 64.6621 44.3643C64.5127 44.3643 64.3644 44.3418 64.2197 44.3311C64.127 43.9689 64.1537 43.9261 64.5173 43.9368C64.9806 43.9507 65.452 43.9732 65.9188 44.0022C66.671 44.0644 67.4276 43.9409 68.1114 43.6443C68.538 43.473 68.882 43.1631 69.0785 42.7732C69.353 42.1872 69.5858 41.5829 69.836 40.9872C69.9599 40.6925 70.0676 40.3914 70.2182 40.1075C70.2546 40.0443 70.2741 39.974 70.2751 39.9024C70.2761 39.8309 70.2586 39.7601 70.224 39.6961C68.8171 36.5854 67.4122 33.4736 66.0092 30.3607C65.8261 29.9547 65.6617 29.5411 65.4578 29.1447C65.3333 28.8508 65.1234 28.5945 64.8514 28.4039C64.5794 28.2133 64.2558 28.0959 63.9162 28.0647C63.8641 28.0647 63.8201 27.9725 63.7761 27.9211C63.768 27.9114 63.7761 27.8911 63.7761 27.875C63.7853 27.2997 63.6996 27.4089 64.2695 27.4057C65.415 27.3993 66.5616 27.4057 67.7071 27.4057H68.0175C68.0175 27.6886 68.0349 27.95 68.0175 28.2082C67.9942 28.7039 68.1003 29.1975 68.3268 29.6472C69.4279 32.0757 70.5251 34.5043 71.6185 36.9329C71.6498 37.0014 71.6857 37.0679 71.7344 37.1632C71.7716 37.1228 71.8049 37.0794 71.834 37.0336C72.9551 34.6904 74.0937 32.3547 75.1836 29.9997C75.5403 29.2293 75.7801 28.4118 76.0592 27.6114C76.0649 27.5783 76.0778 27.5466 76.097 27.5182C76.1163 27.4897 76.1415 27.4652 76.1712 27.446C76.201 27.4268 76.2346 27.4133 76.2701 27.4064C76.3055 27.3995 76.3422 27.3993 76.3777 27.4057C76.709 27.4186 77.0403 27.4057 77.3924 27.4057" fill="#0065FF"/>
<path d="M62.3993 38.5598C62.3993 38.8363 62.4086 39.0838 62.3935 39.3302C62.3891 39.3677 62.3754 39.4037 62.3535 39.4354C62.3316 39.4672 62.3021 39.4939 62.2673 39.5134C60.4638 40.2313 58.4514 40.3665 56.5548 39.897C55.6138 39.6445 54.7539 39.1828 54.0503 38.5521C53.3467 37.9214 52.8207 37.1409 52.5183 36.2788C52.0482 35.2073 51.8621 34.0473 51.9758 32.8957C52.0894 31.7442 52.4995 30.6345 53.1716 29.6595C53.6527 28.9475 54.3096 28.3513 55.0882 27.9198C55.8668 27.4882 56.7449 27.2337 57.6505 27.177C59.195 27.0979 60.743 27.2565 62.2313 27.6463C62.3634 27.6741 62.4016 27.7416 62.4004 27.8606C62.4004 28.7177 62.4004 29.5748 62.4004 30.432C62.4004 30.5831 62.3414 30.6366 62.1792 30.6323C61.8445 30.6238 61.5098 30.6206 61.1762 30.6323C60.9816 30.6398 60.9237 30.5831 60.9086 30.3988C60.8866 30.0598 60.8312 29.7234 60.743 29.3938C60.6314 28.8766 60.3027 28.4215 59.829 28.1281C59.3553 27.8347 58.7752 27.7269 58.2157 27.8284C57.5642 27.8637 56.9369 28.0689 56.4062 28.4202C55.8755 28.7716 55.4632 29.2547 55.217 29.8138C54.8074 30.6103 54.5657 31.4717 54.5047 32.352C54.3741 33.6401 54.5318 34.9392 54.968 36.1684C55.1797 36.9024 55.6163 37.564 56.2252 38.0737C56.8341 38.5833 57.5893 38.9192 58.3999 39.0409C59.6424 39.2347 60.9187 39.1057 62.0866 38.6681L62.3981 38.5609" fill="#0065FF"/>
<path d="M45.2569 28.0619V27.4287H49.9316C49.9709 31.5741 50.0103 35.7087 50.0474 39.8659H47.461C47.461 39.6826 47.461 39.4909 47.461 39.3001C47.4788 37.5294 47.4969 35.7584 47.5155 33.9869C47.5282 32.6562 47.5456 31.3266 47.549 29.9959C47.5489 29.7179 47.5206 29.4407 47.4645 29.1676C47.4399 28.91 47.3169 28.6689 47.1177 28.4875C46.9184 28.3061 46.6558 28.1962 46.3769 28.1776C46.1974 28.1466 46.0144 28.1219 45.8325 28.1037C45.6507 28.0855 45.4689 28.0769 45.2534 28.0619" fill="#0065FF"/>
<path d="M49.9317 22.877H47.5781V25.0455H49.9317V22.877Z" fill="#0065FF"/>
<path d="M192 33.2255C192 35.9279 191.134 38.5697 189.511 40.8167C187.888 43.0637 185.581 44.8151 182.882 45.8493C180.183 46.8835 177.213 47.1541 174.347 46.6268C171.482 46.0996 168.85 44.7982 166.784 42.8873C164.719 40.9764 163.312 38.5417 162.742 35.8912C162.172 33.2406 162.464 30.4932 163.582 27.9965C164.7 25.4997 166.594 23.3657 169.023 21.8643C171.452 20.3629 174.308 19.5615 177.229 19.5615C181.147 19.5615 184.904 21.0011 187.674 23.5636C190.444 26.1261 192 29.6016 192 33.2255Z" fill="#0065FF"/>
<path d="M171.915 36.7032L172.915 36.4557C173.087 37.0297 173.029 37.6421 172.752 38.1796C172.468 38.6917 171.989 39.0881 171.407 39.2918C171.063 39.4386 170.69 39.5154 170.311 39.5171C169.933 39.5187 169.558 39.4452 169.213 39.3014C168.452 38.9288 167.875 38.3002 167.601 37.5453C167.361 37.0386 167.239 36.4912 167.242 35.9382C167.245 35.4603 167.422 34.9973 167.744 34.6235C168.065 34.2522 168.484 33.9636 168.961 33.7857C169.496 33.5568 170.1 33.5061 170.671 33.6421C171.217 33.7984 171.681 34.1348 171.976 34.5871L171.098 35.0789C170.9 34.7956 170.609 34.5791 170.267 34.4618C169.957 34.3695 169.622 34.3855 169.324 34.5068C169.097 34.5857 168.893 34.7107 168.725 34.8726C168.557 35.0345 168.431 35.2291 168.355 35.4421C168.208 36.0167 168.288 36.6208 168.581 37.1457C168.773 37.7104 169.171 38.196 169.706 38.5203C169.915 38.6233 170.146 38.6808 170.382 38.6884C170.618 38.696 170.853 38.6535 171.069 38.5643C171.425 38.4424 171.715 38.1973 171.879 37.8807C172.042 37.5045 172.057 37.0873 171.921 36.7021" fill="white"/>
<path d="M173.017 35.4596C172.804 35.074 172.686 34.6497 172.672 34.2171C172.657 33.7844 172.745 33.354 172.931 32.9568C173.254 32.3738 173.8 31.9223 174.461 31.6893C174.812 31.5421 175.192 31.4644 175.577 31.461C175.963 31.4577 176.344 31.5289 176.698 31.67C177.075 31.8375 177.413 32.0725 177.691 32.3614C177.969 32.6503 178.183 32.9874 178.32 33.3532C178.592 33.8922 178.723 34.4833 178.702 35.0782C178.658 35.5438 178.464 35.9864 178.145 36.3489C177.819 36.7243 177.395 37.0158 176.912 37.1953C176.56 37.3449 176.178 37.4246 175.791 37.4293C175.404 37.4339 175.02 37.3633 174.664 37.2221C173.886 36.858 173.294 36.2247 173.017 35.4596ZM174.01 35.0814C174.206 35.6404 174.615 36.1145 175.161 36.4153C175.381 36.5168 175.622 36.5734 175.867 36.5815C176.113 36.5895 176.357 36.5488 176.584 36.4619C176.811 36.3751 177.015 36.2442 177.183 36.0782C177.351 35.9121 177.478 35.7147 177.556 35.4993C177.713 34.92 177.638 34.3079 177.347 33.7753C177.151 33.2285 176.745 32.767 176.207 32.4778C175.987 32.3766 175.747 32.3199 175.502 32.3117C175.257 32.3034 175.013 32.3437 174.786 32.4298C174.559 32.516 174.355 32.646 174.187 32.8111C174.019 32.9763 173.891 33.1728 173.812 33.3875C173.652 33.9554 173.722 34.5575 174.007 35.0814" fill="white"/>
<path d="M180.656 35.6294L178.31 30.3623L179.173 30.0333L179.502 30.7726C179.566 30.4463 179.715 30.1395 179.937 29.879C180.175 29.6013 180.489 29.3869 180.845 29.2576C181.203 29.1051 181.601 29.0522 181.991 29.1055C182.33 29.1634 182.638 29.3262 182.864 29.5673C182.92 29.2166 183.074 28.8854 183.31 28.6061C183.546 28.3269 183.856 28.1091 184.21 27.974C184.443 27.8676 184.697 27.8069 184.956 27.7958C185.215 27.7847 185.474 27.8235 185.716 27.9098C186.217 28.1556 186.594 28.5733 186.766 29.0733L188.376 32.6894L187.416 33.0548L185.939 29.7333C185.837 29.468 185.689 29.2195 185.502 28.9973C185.367 28.8631 185.187 28.7751 184.992 28.7476C184.774 28.7155 184.551 28.7423 184.349 28.8248C184.162 28.8902 183.992 28.9905 183.848 29.1196C183.705 29.2486 183.592 29.4035 183.516 29.5748C183.368 30.0178 183.415 30.4972 183.646 30.9087L185.008 33.9687L184.043 34.3362L182.52 30.914C182.405 30.592 182.183 30.3114 181.887 30.1115C181.747 30.0432 181.592 30.0074 181.434 30.0074C181.277 30.0074 181.121 30.0432 180.982 30.1115C180.715 30.2116 180.485 30.38 180.317 30.5969C180.144 30.8212 180.058 31.0931 180.074 31.3683C180.113 31.7699 180.227 32.1624 180.409 32.5287L181.625 35.2619L180.656 35.6294Z" fill="white"/>
<path d="M188.556 21.5506V18.4199H187.292V18.001H190.328V18.4199H189.054V21.5506H188.556Z" fill="black"/>
<path d="M190.838 21.5507V18H191.602L192.51 20.5136C192.595 20.7479 192.656 20.9229 192.693 21.0386C192.737 20.91 192.805 20.7204 192.897 20.4696L193.816 18.0054H194.499V21.5507H194.01V18.5796L192.895 21.5507H192.432L191.322 18.5293V21.5507H190.838Z" fill="black"/>
<path d="M20.54 52.2646H22.2588L21.5326 55.1243H24.7016L25.4278 52.2646H27.1466L25.3119 59.4914H23.5931L24.3298 56.59H21.1596L20.423 59.4914H18.71L20.54 52.2646Z" fill="white"/>
<path d="M31.3904 52.2139H32.976L34.4702 59.4921H32.6772L32.3749 57.871H29.0716L27.9458 59.4921H26.1934L31.3904 52.2139ZM32.1178 56.4674L31.6753 54.1242L30.0422 56.4674H32.1178Z" fill="white"/>
<path d="M37.1918 52.2658H40.7626C41.1488 52.2278 41.5392 52.2743 41.9024 52.4016C42.2656 52.5289 42.5913 52.7334 42.8533 52.9986C43.0283 53.2382 43.1418 53.5116 43.1852 53.7979C43.2285 54.0842 43.2006 54.3759 43.1034 54.6508V54.6711C42.9812 55.211 42.6947 55.7073 42.2776 56.1015C41.8784 56.4678 41.3938 56.7449 40.8611 56.9115L42.1143 59.4926H40.099L39.0125 57.1793H37.662L37.0748 59.4926H35.356L37.1918 52.2658ZM39.7596 55.7758C40.1304 55.7889 40.4959 55.6912 40.802 55.4972C41.0713 55.318 41.2598 55.0533 41.3313 54.7536V54.7333C41.3831 54.6029 41.3956 54.4619 41.3675 54.3255C41.3393 54.189 41.2716 54.0622 41.1715 53.9586C40.9096 53.7662 40.5781 53.6738 40.2449 53.7004H38.5458L38.0188 55.7747L39.7596 55.7758Z" fill="white"/>
<path d="M48.5985 52.2646H54.5415L54.1766 53.6993H49.9467L49.5506 55.2582H53.2778L52.9199 56.6918H49.1915L48.4815 59.4893H46.7627L48.5985 52.2646Z" fill="white"/>
<path d="M57.6514 52.2139H59.2371L60.737 59.4921H58.9394L58.6371 57.871H55.3338L54.208 59.4921H52.4556L57.6514 52.2139ZM58.3788 56.4674L57.9364 54.1242L56.3033 56.4674H58.3788Z" fill="white"/>
<path d="M63.4529 52.2646H65.3061L66.5801 55.3204L69.4097 52.2646H71.2629L69.4271 59.4914H67.7303L68.9291 54.7771L65.9466 57.8639H65.9026L64.5022 54.8082L63.3116 59.4946H61.6147L63.4529 52.2646Z" fill="white"/>
<path d="M72.8939 52.2646H74.6128L72.7769 59.4914H71.0581L72.8939 52.2646Z" fill="white"/>
<path d="M76.2427 52.2646H77.9615L76.4905 58.0568H80.3857L80.0209 59.4914H74.4092L76.2427 52.2646Z" fill="white"/>
<path d="M82.3204 56.6425L80.4302 52.2646H82.4386L83.5655 55.165L86.1994 52.2646H88.1522L84.0462 56.6114L83.3142 59.4925H81.5954L82.3204 56.6425Z" fill="white"/>
<path d="M92.5619 52.2646H94.2807L93.5545 55.1243H96.7235L97.4497 52.2646H99.1685L97.3327 59.4914H95.6139L96.3505 56.59H93.1815L92.4449 59.4914H90.7261L92.5619 52.2646Z" fill="white"/>
<path d="M102.649 59.6169C102.103 59.6275 101.561 59.5269 101.061 59.3223C100.628 59.1428 100.248 58.8703 99.9516 58.5273C99.663 58.183 99.4704 57.7782 99.391 57.3487C99.3021 56.8665 99.323 56.3723 99.4524 55.898V55.8776C99.584 55.3603 99.8146 54.869 100.133 54.4269C100.454 53.9781 100.847 53.5777 101.3 53.2398C101.757 52.8974 102.271 52.6254 102.822 52.4341C103.377 52.2388 103.965 52.1389 104.559 52.1394C105.105 52.1289 105.647 52.2295 106.147 52.4341C106.58 52.6136 106.96 52.8862 107.257 53.2291C107.545 53.5734 107.738 53.9781 107.817 54.4076C107.906 54.8899 107.885 55.384 107.756 55.8583V55.8787C107.624 56.3959 107.393 56.8873 107.075 57.3294C106.754 57.7781 106.361 58.1785 105.908 58.5166C105.451 58.8589 104.937 59.1309 104.387 59.3223C103.83 59.5181 103.239 59.618 102.643 59.6169M103.037 58.1501C103.378 58.1504 103.715 58.0908 104.031 57.9744C104.347 57.8594 104.64 57.6953 104.896 57.4891C105.154 57.2815 105.378 57.0395 105.559 56.7712C105.741 56.5026 105.874 56.2079 105.952 55.899V55.8787C106.03 55.5919 106.047 55.2939 106.002 55.0012C105.963 54.7409 105.858 54.4929 105.694 54.278C105.531 54.069 105.315 53.9005 105.065 53.7873C104.784 53.6623 104.475 53.6003 104.163 53.6062C103.821 53.6049 103.482 53.6646 103.165 53.7819C102.851 53.8979 102.56 54.062 102.305 54.2673C102.047 54.4747 101.824 54.7167 101.643 54.9851C101.46 55.2535 101.326 55.5483 101.248 55.8573V55.8776C101.17 56.1645 101.154 56.4624 101.198 56.7551C101.237 57.0151 101.343 57.2626 101.506 57.4773C101.667 57.6855 101.881 57.854 102.129 57.968C102.412 58.0945 102.723 58.1576 103.037 58.1501Z" fill="white"/>
<path d="M111.777 59.6153C111.23 59.6264 110.686 59.5315 110.18 59.3367C109.749 59.168 109.372 58.9016 109.082 58.5621C108.798 58.2169 108.611 57.8119 108.539 57.3835C108.455 56.8885 108.481 56.3829 108.615 55.8974V55.8771C108.746 55.3606 108.975 54.8695 109.29 54.4264C109.608 53.9778 109.999 53.5774 110.449 53.2392C110.899 52.8987 111.405 52.6267 111.947 52.4335C112.494 52.2374 113.076 52.1375 113.663 52.1389C113.977 52.1363 114.29 52.1588 114.6 52.2064C114.856 52.2461 115.107 52.31 115.349 52.3971C115.567 52.4761 115.773 52.5802 115.962 52.7067C116.149 52.8342 116.322 52.9777 116.48 53.1353L115.09 54.3428C114.976 54.2306 114.853 54.1271 114.721 54.0331C114.596 53.9441 114.46 53.8679 114.316 53.806C114.162 53.7413 114 53.6928 113.834 53.6614C113.636 53.6252 113.435 53.608 113.233 53.6099C112.914 53.6103 112.598 53.672 112.306 53.791C112.002 53.9129 111.72 54.0769 111.469 54.2774C111.211 54.483 110.988 54.7236 110.808 54.991C110.625 55.2602 110.491 55.5557 110.413 55.8653V55.8857C110.331 56.1848 110.311 56.4956 110.354 56.8017C110.391 57.0641 110.496 57.3143 110.659 57.5314C110.82 57.7388 111.035 57.9045 111.285 58.0124C111.571 58.1322 111.882 58.1908 112.195 58.1839C112.805 58.1913 113.404 58.0398 113.925 57.7467L114.189 56.7074H112.458L112.806 55.3339H116.198L115.401 58.4721C114.892 58.8022 114.341 59.0741 113.761 59.2821C113.127 59.5095 112.452 59.6233 111.773 59.6174" fill="white"/>
<path d="M118.389 52.2646H120.107L118.272 59.4914H116.553L118.389 52.2646Z" fill="white"/>
<path d="M125.507 52.2646H127.226L125.39 59.4914H123.671L125.507 52.2646Z" fill="white"/>
<path d="M128.855 52.2646H130.44L132.97 56.7143L134.101 52.2646H135.798L133.962 59.4914H132.5L129.884 54.8971L128.717 59.4914H127.021L128.855 52.2646Z" fill="white"/>
<path d="M138.278 59.5957C137.703 59.5993 137.133 59.503 136.597 59.3117C136.079 59.1275 135.619 58.8279 135.256 58.4396L136.558 57.3146C136.831 57.5735 137.148 57.7905 137.495 57.9575C137.86 58.1221 138.262 58.2036 138.668 58.1953C138.973 58.2065 139.275 58.1441 139.546 58.0142C139.651 57.9636 139.743 57.8928 139.816 57.8065C139.889 57.7202 139.941 57.6204 139.969 57.5139V57.4935C139.995 57.404 139.998 57.31 139.977 57.2192C139.947 57.1286 139.884 57.0503 139.798 56.9974C139.666 56.9118 139.522 56.8423 139.37 56.7907C139.126 56.7064 138.878 56.6349 138.625 56.5764C138.286 56.4972 137.952 56.3974 137.627 56.2774C137.363 56.1842 137.121 56.0457 136.913 55.8692C136.729 55.7056 136.602 55.4954 136.546 55.265C136.486 54.9665 136.502 54.6593 136.59 54.3671V54.3467C136.669 54.0267 136.814 53.7237 137.016 53.4542C137.217 53.1886 137.466 52.9563 137.751 52.7674C138.047 52.5719 138.376 52.4221 138.725 52.3239C139.095 52.2195 139.48 52.1674 139.867 52.1696C140.385 52.1608 140.9 52.2415 141.385 52.4074C141.815 52.5597 142.206 52.7916 142.534 53.0889L141.338 54.2867C141.065 54.0786 140.764 53.9033 140.444 53.7649C140.144 53.6384 139.818 53.5733 139.488 53.5742C139.208 53.561 138.93 53.624 138.689 53.7553C138.508 53.8543 138.376 54.0157 138.323 54.2042V54.2246C138.295 54.3243 138.295 54.4291 138.323 54.5289C138.358 54.6265 138.431 54.7091 138.527 54.7614C138.673 54.8461 138.831 54.912 138.997 54.9575C139.201 55.0196 139.46 55.091 139.775 55.1717C140.109 55.2546 140.435 55.3621 140.751 55.4932C141.002 55.5951 141.231 55.7405 141.424 55.9217C141.591 56.0872 141.706 56.2928 141.754 56.5153C141.802 56.7869 141.787 57.065 141.708 57.3307V57.351C141.625 57.6932 141.471 58.0173 141.256 58.3057C141.048 58.5807 140.788 58.8185 140.489 59.0075C140.179 59.1992 139.838 59.3439 139.479 59.436C139.089 59.5379 138.686 59.5884 138.281 59.586" fill="white"/>
<path d="M145.566 59.605C145.146 59.6414 144.722 59.5876 144.328 59.4479C143.934 59.3081 143.579 59.0862 143.293 58.7993C143.048 58.4458 142.895 58.0452 142.844 57.6282C142.793 57.2111 142.846 56.7889 143 56.3939L144.049 52.2646H145.768L144.726 56.3532C144.643 56.5709 144.61 56.802 144.628 57.0321C144.646 57.2622 144.716 57.4863 144.832 57.6904C144.963 57.8473 145.135 57.9708 145.332 58.0493C145.528 58.1278 145.744 58.1588 145.957 58.1393C146.448 58.1527 146.928 58.0004 147.306 57.7107C147.711 57.3667 147.984 56.9102 148.083 56.41L149.135 52.27H150.854L149.818 56.3479C149.698 56.8521 149.494 57.336 149.214 57.7825C148.967 58.1709 148.647 58.5153 148.269 58.7993C147.901 59.0715 147.481 59.2779 147.032 59.4079C146.556 59.5445 146.061 59.6124 145.563 59.6093" fill="white"/>
<path d="M152.282 52.2658H155.853C156.239 52.2278 156.629 52.2743 156.993 52.4016C157.356 52.5289 157.682 52.7334 157.944 52.9986C158.119 53.2382 158.232 53.5116 158.275 53.7979C158.319 54.0842 158.291 54.3759 158.194 54.6508V54.6711C158.071 55.211 157.785 55.7073 157.368 56.1015C156.969 56.4678 156.484 56.7449 155.951 56.9115L157.205 59.4926H155.188L154.102 57.1793H152.756L152.169 59.4926H150.45L152.282 52.2658ZM154.85 55.7758C155.221 55.7889 155.586 55.6912 155.892 55.4972C156.162 55.318 156.35 55.0533 156.422 54.7536L156.427 54.7333C156.479 54.6028 156.491 54.4618 156.463 54.3253C156.435 54.1889 156.367 54.0621 156.266 53.9586C156.005 53.7661 155.673 53.6737 155.34 53.7004H153.636L153.109 55.7747L154.85 55.7758Z" fill="white"/>
<path d="M160.027 52.2646H165.909L165.55 53.6789H161.364L160.991 55.1447H164.674L164.315 56.5589H160.632L160.246 58.0772H164.488L164.129 59.4914H158.191L160.027 52.2646Z" fill="white"/>
<path d="M167.182 52.2644H170.228C170.779 52.2542 171.327 52.3472 171.838 52.5377C172.274 52.7016 172.66 52.9621 172.961 53.2962C173.251 53.6259 173.445 54.0182 173.526 54.4362C173.614 54.908 173.594 55.3918 173.466 55.8559V55.8762C173.338 56.3837 173.113 56.8661 172.803 57.3012C172.493 57.7393 172.106 58.1267 171.658 58.4477C171.203 58.7738 170.695 59.0316 170.153 59.2116C169.591 59.398 168.999 59.4923 168.403 59.4901H165.356L167.182 52.2644ZM168.758 58.0566C169.099 58.058 169.437 58.0055 169.758 57.9012C170.069 57.801 170.358 57.6508 170.613 57.4576C170.867 57.2634 171.088 57.0335 171.266 56.7762C171.451 56.5069 171.585 56.2101 171.662 55.8987V55.8784C171.741 55.5917 171.758 55.2935 171.712 55.0009C171.673 54.7508 171.569 54.5132 171.408 54.3087C171.245 54.1109 171.028 53.9561 170.779 53.8598C170.488 53.7482 170.175 53.6938 169.86 53.7001H168.532L167.426 58.0566H168.758Z" fill="white"/>
</g>
</svg>
