<svg width="1682" height="257" viewBox="0 0 1682 257" fill="none" xmlns="http://www.w3.org/2000/svg">
<path d="M127.948 109.416L137.81 130.784H218.76V235.567H116.442H116.031C61.7903 228.582 20.6988 182.97 20.6988 129.551C20.6988 76.5432 61.7903 30.9316 116.031 23.9461L116.442 23.5352H239.306V2.5785H131.235C96.3071 2.5785 63.8449 15.7278 39.19 39.5609C14.5351 63.3939 0.563965 95.4453 0.563965 129.551C0.563965 164.068 14.5351 196.119 39.19 219.952C63.8449 243.786 96.3071 256.524 131.235 256.524H239.716V109.416H127.948Z" fill="white"/>
<path d="M427.864 129.551L422.933 122.155L418.413 114.347L425.81 109.416C425.81 109.416 426.22 109.416 426.22 109.005C426.22 109.005 426.22 109.005 426.631 109.005L427.042 108.595C427.453 108.184 428.275 107.773 428.686 107.362H429.097L429.508 106.951C429.919 106.951 430.33 106.54 431.151 106.129C432.384 104.896 434.028 103.664 435.261 102.842L435.671 102.431C436.082 102.431 436.082 102.02 436.493 102.02C436.904 101.609 437.315 101.198 438.137 100.787C438.959 99.9653 439.37 99.5544 440.192 98.7326H440.602C441.013 97.9108 441.835 97.4998 442.246 97.0889C443.89 95.8562 445.533 94.2125 447.177 92.5689C464.846 75.3104 476.763 53.532 482.105 29.6989C484.159 20.6588 484.981 11.2077 484.981 1.75668V1.34575H276.647V96.678L288.153 90.9252L297.604 85.9942V22.3024H462.792L459.094 34.219C453.752 50.6555 444.712 65.4485 432.384 77.7759C422.933 86.8161 411.838 94.2125 399.922 99.5544C386.362 105.307 372.391 108.184 357.598 108.184H276.647V256.524H297.604V129.14H357.598C358.419 129.14 359.241 129.14 360.063 129.14H360.885H361.707C362.118 129.14 362.94 129.14 363.761 129.14H364.172C365.405 129.14 366.227 129.14 367.049 128.729H367.46C368.281 128.729 369.514 128.729 370.336 128.729H370.747C371.569 128.318 372.391 128.318 373.212 128.318C373.623 128.318 374.034 128.318 374.034 128.318H374.445C375.267 127.908 376.089 127.908 376.5 127.908H376.911C376.911 127.908 377.322 127.908 377.322 127.497H377.732C378.554 127.497 378.965 127.497 379.376 127.497C381.842 127.086 383.896 126.675 385.951 125.853C387.184 125.853 388.005 125.442 388.827 125.442H389.238L389.649 125.031C390.471 125.031 390.882 125.031 391.293 124.62H391.704H392.114L398.689 122.566L402.387 128.729L404.442 132.017L480.461 256.524H505.116L427.864 129.551Z" fill="white"/>
<path d="M640.808 0.523926C570.131 0.523926 512.602 58.052 512.602 128.729C512.602 199.407 570.131 256.524 640.808 256.524C711.485 256.524 769.013 199.407 769.013 128.729C769.013 58.052 711.485 0.523926 640.808 0.523926ZM640.808 234.335C582.458 234.335 534.792 187.079 534.792 128.729C534.792 70.3795 582.458 22.7133 640.808 22.7133C699.158 22.7133 746.413 70.3795 746.413 128.729C746.413 187.079 699.158 234.335 640.808 234.335Z" fill="white"/>
<path d="M1148.16 1.34575L1066.8 181.326L1058.17 206.803L1048.72 181.737L987.906 46.9573L973.524 15.3169L959.553 46.9573L898.737 181.737L889.697 201.872L880.657 181.737L799.296 1.34575H774.641L875.726 225.294L877.37 229.404L889.697 256.524L902.436 228.582L903.668 225.294L964.895 90.1034L973.524 70.3795L982.564 90.1034L1043.38 225.294L1056.94 255.291L1058.17 251.593L1058.99 253.648L1071.73 225.294L1172.82 1.34575H1148.16Z" fill="white"/>
<path d="M1317.6 256.524V61.3393H1296.64V256.524H1317.6ZM1421.97 23.1242V2.16759H1196.79V23.1242H1421.97Z" fill="white"/>
<path d="M1660.54 2.5785V109.416H1481.79V2.5785H1460.84V256.524H1481.79V130.784H1660.54V256.524H1681.5V2.5785H1660.54Z" fill="white"/>
</svg>
