<svg width="24" height="24" viewBox="0 0 24 24" fill="none" xmlns="http://www.w3.org/2000/svg">
<path d="M20.9469 8.30499C20.9359 7.54799 20.7959 6.79699 20.5279 6.08899C20.0589 4.87999 19.1039 3.92399 17.8949 3.45599C17.1959 3.19299 16.4569 3.05199 15.7089 3.03599C14.7469 2.99299 14.4419 2.98099 11.9999 2.98099C9.55795 2.98099 9.24495 2.98099 8.28995 3.03599C7.54295 3.05199 6.80395 3.19299 6.10495 3.45599C4.89595 3.92399 3.93995 4.87999 3.47195 6.08899C3.20895 6.78799 3.06695 7.52699 3.05295 8.27399C3.00995 9.23699 2.99695 9.54199 2.99695 11.984C2.99695 14.426 2.99695 14.738 3.05295 15.694C3.06795 16.442 3.20895 17.18 3.47195 17.881C3.94095 19.089 4.89595 20.045 6.10595 20.513C6.80195 20.785 7.54095 20.939 8.29095 20.963C9.25395 21.006 9.55895 21.019 12.0009 21.019C14.4429 21.019 14.7559 21.019 15.7109 20.963C16.4579 20.948 17.1969 20.807 17.8969 20.544C19.1059 20.075 20.0609 19.119 20.5299 17.911C20.7929 17.211 20.9339 16.473 20.9489 15.724C20.9919 14.762 21.0049 14.457 21.0049 12.014C21.0029 9.57199 21.0029 9.26199 20.9469 8.30499ZM11.9939 16.602C9.43995 16.602 7.37095 14.533 7.37095 11.979C7.37095 9.42499 9.43995 7.35599 11.9939 7.35599C14.5459 7.35599 16.6169 9.42499 16.6169 11.979C16.6169 14.533 14.5459 16.602 11.9939 16.602ZM16.8009 8.26299C16.2039 8.26299 15.7229 7.78099 15.7229 7.18499C15.7229 6.58899 16.2039 6.10699 16.8009 6.10699C17.3959 6.10699 17.8779 6.58899 17.8779 7.18499C17.8779 7.78099 17.3959 8.26299 16.8009 8.26299Z" fill="white"/>
<path d="M11.994 14.982C13.6525 14.982 14.997 13.6375 14.997 11.979C14.997 10.3205 13.6525 8.97601 11.994 8.97601C10.3355 8.97601 8.99097 10.3205 8.99097 11.979C8.99097 13.6375 10.3355 14.982 11.994 14.982Z" fill="white"/>
</svg>
