<svg width="42" height="48" viewBox="0 0 42 48" fill="none" xmlns="http://www.w3.org/2000/svg">
<g clip-path="url(#clip0)">
<path d="M21.0096 13.2186C15.0471 13.2186 10.2377 18.0279 10.2377 23.9904C10.2377 29.9529 15.0471 34.7623 21.0096 34.7623C26.9721 34.7623 31.7814 29.9529 31.7814 23.9904C31.7814 18.0279 26.9721 13.2186 21.0096 13.2186ZM21.0096 30.9936C17.1564 30.9936 14.0064 27.8529 14.0064 23.9904C14.0064 20.1279 17.1471 16.9873 21.0096 16.9873C24.8721 16.9873 28.0127 20.1279 28.0127 23.9904C28.0127 27.8529 24.8627 30.9936 21.0096 30.9936V30.9936ZM34.7346 12.7779C34.7346 14.1748 33.6096 15.2904 32.2221 15.2904C30.8252 15.2904 29.7096 14.1654 29.7096 12.7779C29.7096 11.3904 30.8346 10.2654 32.2221 10.2654C33.6096 10.2654 34.7346 11.3904 34.7346 12.7779ZM41.8689 15.3279C41.7096 11.9623 40.9408 8.98105 38.4752 6.5248C36.0189 4.06855 33.0377 3.2998 29.6721 3.13105C26.2033 2.93418 15.8064 2.93418 12.3377 3.13105C8.98145 3.29043 6.0002 4.05918 3.53457 6.51543C1.06895 8.97168 0.30957 11.9529 0.14082 15.3186C-0.0560547 18.7873 -0.0560547 29.1842 0.14082 32.6529C0.300195 36.0186 1.06895 38.9998 3.53457 41.4561C6.0002 43.9123 8.97207 44.6811 12.3377 44.8498C15.8064 45.0467 26.2033 45.0467 29.6721 44.8498C33.0377 44.6904 36.0189 43.9217 38.4752 41.4561C40.9314 38.9998 41.7002 36.0186 41.8689 32.6529C42.0658 29.1842 42.0658 18.7967 41.8689 15.3279V15.3279ZM37.3877 36.3748C36.6564 38.2123 35.2408 39.6279 33.3939 40.3686C30.6283 41.4654 24.0658 41.2123 21.0096 41.2123C17.9533 41.2123 11.3814 41.4561 8.6252 40.3686C6.78769 39.6373 5.37207 38.2217 4.63145 36.3748C3.53457 33.6092 3.7877 27.0467 3.7877 23.9904C3.7877 20.9342 3.54395 14.3623 4.63145 11.6061C5.3627 9.76855 6.77832 8.35293 8.6252 7.6123C11.3908 6.51543 17.9533 6.76855 21.0096 6.76855C24.0658 6.76855 30.6377 6.5248 33.3939 7.6123C35.2314 8.34355 36.6471 9.75918 37.3877 11.6061C38.4846 14.3717 38.2314 20.9342 38.2314 23.9904C38.2314 27.0467 38.4846 33.6186 37.3877 36.3748Z" fill="#162DD3"/>
</g>
<defs>
<clipPath id="clip0">
<rect width="42" height="48" fill="white"/>
</clipPath>
</defs>
</svg>
