<svg width="196" height="67" viewBox="0 0 196 67" fill="none" xmlns="http://www.w3.org/2000/svg">
<path fill-rule="evenodd" clip-rule="evenodd" d="M13 32.7006C13 18.5076 26.3019 7 42.7126 7C59.1233 7 72.4241 18.5076 72.4241 32.7006C72.4241 46.8936 59.1221 58.4012 42.7126 58.4012C26.3031 58.4012 13 46.8953 13 32.7006Z" fill="#003874"/>
<path fill-rule="evenodd" clip-rule="evenodd" d="M39.1044 15.2538L46.0076 12.96L46.0416 50.4902L39.0801 52.8359L39.1044 15.2538ZM110.911 47.5574C117.545 47.5574 122.597 43.6775 122.597 37.0004C122.597 30.2869 117.545 26.4001 110.911 26.4001C104.281 26.4001 99.2278 30.2755 99.2278 37.0004C99.2278 43.678 104.28 47.5574 110.911 47.5574ZM110.911 42.6687C107.711 42.6687 106.402 39.9902 106.402 37.0004C106.402 33.9714 107.705 31.3013 110.911 31.3013C114.116 31.3013 115.423 33.9765 115.423 37.0004C115.423 39.9902 114.12 42.6687 110.911 42.6687ZM121.96 31.7607H125.926V39.9902C125.926 44.8002 127.43 47.5574 133.636 47.5574C135.372 47.5574 136.685 47.3294 138 47.1699L137.773 42.63C137.079 42.7457 136.347 42.9007 135.654 42.9007C133.455 42.9007 132.875 41.6583 132.875 39.2134V31.7607H137.734V26.8709H132.875L132.874 19.8781L126.052 22.3287V26.8709H121.964V31.7607M162.027 47.0929H168.969V37.0796H169.045L174.6 47.0929H183L175.44 36.1478L182.42 26.872H174.825L169.04 35.3716H168.964V19.9043L162.022 22.3304V47.0986" fill="#ED1C24"/>
<path fill-rule="evenodd" clip-rule="evenodd" d="M80.7451 47.0924H87.689V37.0791H87.765L93.3195 47.0924H101.725L94.1655 36.1473L101.145 26.872H93.5501L87.7661 35.3716H87.6902V19.9043L80.7462 22.2067V47.0924M159.558 47.1864C159.245 45.5775 159.162 43.9664 159.162 42.3547V34.735C159.162 28.4888 154.672 26.2434 149.482 26.2434C146.477 26.2434 143.862 26.6742 141.365 27.6967L141.478 32.4879C143.426 31.3897 145.691 30.9491 147.955 30.9491C150.493 30.9491 152.559 31.6968 152.598 34.4854C151.515 34.3064 150.419 34.2147 149.321 34.2113C145.581 34.2113 138.824 34.959 138.824 41.2041C138.824 45.6425 142.415 47.644 146.434 47.644C149.321 47.644 151.272 46.5042 152.873 43.9527H152.967C152.967 45.0128 153.084 46.0739 153.123 47.1727H159.564L159.558 47.1864ZM145.389 40.7065C145.389 38.7415 147.263 37.996 149.643 37.996C150.697 37.996 151.714 38.0741 152.609 38.1135C152.609 40.5105 150.932 42.9434 148.28 42.9434C146.639 42.9434 145.389 42.1193 145.389 40.7065Z" fill="#ED1C24"/>
<path fill-rule="evenodd" clip-rule="evenodd" d="M65.0574 35.2884C64.4097 40.6569 61.4154 46.0807 54.8772 46.091C51.0602 46.0978 48.0784 43.4694 46.0134 40.2534V36.5285C48.5974 37.8188 51.0126 39.2037 53.9428 39.2458C57.5525 39.2994 60.8165 37.9037 62.1663 35.2878H65.058L65.0574 35.2884ZM43.2011 38.6594C40.2017 42.2954 37.3032 46.0095 31.8723 46.0095C24.2013 46.0095 20.5627 38.5505 20.5627 32.3146C20.5627 26.3226 23.4063 19.2295 30.8795 19.2295C34.1208 19.2295 37.2409 21.223 39.1007 23.3317L39.095 28.4181C37.5412 27.3661 34.0607 26.334 31.7884 26.2969C27.0494 26.2171 22.8713 28.2831 22.9439 32.9877C22.9932 36.2264 26.1841 38.428 29.3585 38.428C34.2205 38.428 37.1661 33.9611 39.6277 30.5707C40.6146 29.2765 41.5903 27.9736 42.5545 26.6622C45.2887 22.8199 48.4524 19.3121 53.8833 19.3121C60.281 19.3121 63.8725 24.4983 64.888 29.8372H61.998C60.8363 28.1058 58.6019 27.0464 56.401 27.0464C51.3747 27.0464 48.3713 31.6968 45.8576 35.1208L43.1943 38.6588" fill="white"/>
</svg>
