<svg width="500" height="98" viewBox="0 0 500 98" fill="none" xmlns="http://www.w3.org/2000/svg">
<g clip-path="url(#clip0_100_2)">
<mask id="mask0_100_2" style="mask-type:luminance" maskUnits="userSpaceOnUse" x="0" y="0" width="500" height="98">
<path d="M500 0H0V97.7778H500V0Z" fill="white"/>
</mask>
<g mask="url(#mask0_100_2)">
<path d="M93.3744 13.5766L93.984 25.7878C94.1753 29.5811 90.524 32.2702 87.1953 30.7862L76.4867 26.0073C74.7955 25.2535 73.648 23.5675 73.5107 21.6442L72.6022 8.98189C72.3213 5.08762 76.0982 2.3094 79.4864 3.91815L90.4942 9.14811C92.1673 9.94358 93.2789 11.6533 93.3744 13.5826V13.5766ZM114.655 19.2459L103.647 14.0159C100.265 12.4072 96.488 15.1913 96.7629 19.0797L97.6711 31.742C97.8087 33.6653 98.956 35.3513 100.647 36.1051L111.356 40.884C114.684 42.368 118.33 39.6849 118.145 35.8855L117.535 23.6744C117.439 21.7451 116.328 20.0354 114.655 19.2399V19.2459ZM138.726 29.5275L127.718 24.2978C124.336 22.6889 120.559 25.4731 120.834 29.3613L121.742 42.0238C121.88 43.9471 123.027 45.6331 124.718 46.3869L135.427 51.1658C138.755 52.6498 142.401 49.9666 142.216 46.1673L141.606 33.9562C141.51 32.0269 140.399 30.3171 138.726 29.5218V29.5275ZM62.742 3.91222L51.7344 9.14218C50.0613 9.93764 48.9498 11.6473 48.8542 13.5766L48.2447 25.7878C48.0533 29.5811 51.7047 32.2702 55.0331 30.7862L65.742 26.0073C67.4331 25.2535 68.5804 23.5675 68.718 21.6442L69.6262 8.98189C69.9071 5.08762 66.1304 2.3094 62.742 3.91815V3.91222ZM38.5816 14.0159L27.574 19.2459C25.9007 20.0414 24.7891 21.751 24.6936 23.6804L24.084 35.8913C23.8929 39.6849 27.544 42.374 30.8727 40.8898L41.5816 36.1111C43.2727 35.3571 44.42 33.6713 44.5576 31.7478L45.4658 19.0856C45.7467 15.1913 41.97 12.4131 38.5816 14.0219V14.0159ZM14.5047 24.2978L3.49713 29.5275C1.82387 30.3231 0.712358 32.0329 0.616744 33.9622L0.00720311 46.1733C-0.184025 49.9666 3.46724 52.6558 6.79582 51.1715L17.5046 46.3929C19.1958 45.6389 20.3432 43.9531 20.4806 42.0295L21.3889 29.3673C21.6698 25.4731 17.893 22.6949 14.5047 24.3038V24.2978ZM90.4942 39.8153L79.4864 34.5853C76.1042 32.9766 72.3273 35.7609 72.6022 39.6491L73.5107 52.3113C73.648 54.2349 74.7955 55.9206 76.4867 56.6746L87.1953 61.4535C90.524 62.9375 94.1693 60.2542 93.984 56.4551L93.3744 44.244C93.2789 42.3146 92.1673 40.6049 90.4942 39.8095V39.8153ZM114.655 49.9191L103.647 44.6891C100.265 43.0804 96.488 45.8644 96.7629 49.7529L97.6711 62.4151C97.8087 64.3384 98.956 66.0244 100.647 66.7784L111.356 71.5571C114.684 73.0413 118.33 70.358 118.145 66.5586L117.535 54.3475C117.439 52.4182 116.328 50.7086 114.655 49.9131V49.9191ZM62.742 34.5913L51.7344 39.8213C50.0613 40.6169 48.9498 42.3264 48.8542 44.2558L48.2447 56.4669C48.0533 60.2602 51.7047 62.9493 55.0331 61.4653L65.742 56.6864C67.4331 55.9326 68.5804 54.2466 68.718 52.3233L69.6262 39.6611C69.9071 35.7666 66.1304 32.9884 62.742 34.5973V34.5913ZM38.5816 44.6891L27.574 49.9191C25.9007 50.7146 24.7891 52.4242 24.6936 54.3535L24.084 66.5646C23.8929 70.358 27.544 73.0471 30.8727 71.5631L41.5816 66.7842C43.2727 66.0304 44.42 64.3444 44.5576 62.4211L45.4658 49.7589C45.7467 45.8644 41.97 43.0862 38.5816 44.6951V44.6891ZM90.4942 70.6964L79.4864 65.4664C76.1042 63.8578 72.3273 66.6418 72.6022 70.5302L73.5107 83.1924C73.648 85.1158 74.7955 86.8018 76.4867 87.5558L87.1953 92.3344C90.524 93.8184 94.1693 91.1353 93.984 87.336L93.3744 75.1249C93.2789 73.1955 92.1673 71.486 90.4942 70.6904V70.6964ZM62.742 65.4664L51.7344 70.6964C50.0613 71.4918 48.9498 73.2015 48.8542 75.1309L48.2447 87.342C48.0533 91.1353 51.7047 93.8244 55.0331 92.3404L65.742 87.5615C67.4331 86.8078 68.5804 85.1218 68.718 83.1984L69.6262 70.536C69.9071 66.6418 66.1304 63.8635 62.742 65.4724V65.4664Z" fill="url(#paint0_radial_100_2)"/>
<path d="M164.475 15.8575C164.475 14.7288 164.908 13.7703 165.789 12.9509C166.67 12.1469 167.736 11.7295 169.004 11.7295H199.589C199.589 14.4351 199.125 16.3986 198.198 17.6354C197.271 18.8723 195.771 19.4907 193.701 19.4907H173.516V30.9006H191.475C191.475 33.6063 191.011 35.5697 190.084 36.8066C189.157 38.0434 187.658 38.6619 185.587 38.6619H173.501V53.1794C173.501 55.4366 172.775 57.0599 171.337 58.0803C169.9 59.0852 167.597 59.5954 164.444 59.5954V15.8575H164.475Z" fill="black"/>
<path d="M200.424 58.2656C198.507 57.3689 196.977 56.0702 195.833 54.3849C194.69 52.6998 194.118 50.6745 194.118 48.3398C194.118 46.0053 194.721 43.9645 195.942 42.2329C197.163 40.5013 198.816 39.1718 200.903 38.244C202.989 37.3165 205.307 36.8527 207.827 36.8527C209.897 36.8527 211.752 37.1773 213.39 37.8267C215.029 38.476 216.559 39.4653 217.949 40.7642L218.289 40.424C217.888 40.022 217.192 39.4036 216.203 38.5996V37.2547C216.203 35.4147 215.554 33.946 214.24 32.8638C212.942 31.7816 211.118 31.2405 208.769 31.2405C204.581 31.2405 201.505 32.7709 199.512 35.8322C198.523 35.5229 197.688 35.0129 197.008 34.3171C196.328 33.6213 195.988 32.8638 195.988 32.0598C195.988 30.7147 196.591 29.4778 197.812 28.3493C199.033 27.2207 200.671 26.324 202.742 25.6436C204.813 24.9633 207.069 24.6387 209.496 24.6387C214.271 24.6387 217.965 25.7518 220.561 27.9782C223.173 30.2044 224.471 33.2349 224.471 37.0691V53.952C224.471 55.9309 223.838 57.3689 222.587 58.2809C221.319 59.1778 219.34 59.626 216.651 59.626V56.8587C217.409 56.1011 217.934 55.5289 218.197 55.1733L217.934 54.8333C216.45 56.4102 214.859 57.6007 213.174 58.4202C211.489 59.224 209.341 59.6416 206.729 59.6416C204.426 59.6416 202.325 59.1931 200.408 58.2965L200.424 58.2656ZM214.364 52.1276C215.662 51.2309 216.327 49.9478 216.327 48.278C216.327 46.6082 215.662 45.3713 214.333 44.4282C213.004 43.4851 211.211 43.006 208.97 43.006C206.899 43.006 205.261 43.4698 204.071 44.3973C202.881 45.3251 202.278 46.6238 202.278 48.278C202.278 49.9322 202.865 51.2773 204.04 52.1587C205.215 53.0398 206.837 53.4727 208.908 53.4727C211.242 53.4727 213.066 53.0245 214.379 52.1276H214.364Z" fill="black"/>
<path d="M229.587 31.1167C229.587 29.0449 230.236 27.4524 231.549 26.324C232.847 25.1953 234.842 24.6387 237.485 24.6387V28.6893C236.68 29.6789 236.14 30.4056 235.862 30.8538L236.34 31.1167C237.731 28.9987 239.216 27.3907 240.791 26.2931C242.369 25.1953 244.238 24.6387 246.402 24.6387C250.311 24.6387 253.016 26.5558 254.5 30.3747C255.629 28.5658 257.065 27.1589 258.827 26.1538C260.589 25.1336 262.567 24.6387 264.762 24.6387C267.822 24.6387 270.265 25.7518 272.087 27.9782C273.911 30.2044 274.822 33.0493 274.822 36.528V54.4931C274.822 56.302 274.142 57.6007 272.767 58.4047C271.391 59.2087 269.307 59.626 266.525 59.626V37.2082C266.525 35.5384 266.154 34.2089 265.411 33.2193C264.669 32.2298 263.527 31.7351 261.996 31.7351C260.374 31.7351 259.014 32.2918 257.916 33.3893C256.818 34.4871 256.262 36.2187 256.262 38.5533V54.4931C256.262 56.302 255.598 57.6007 254.269 58.4047C252.94 59.2087 250.885 59.626 248.087 59.626V37.2082C248.087 35.492 247.731 34.1625 247.005 33.1885C246.278 32.2145 245.165 31.7351 243.636 31.7351C241.749 31.7351 240.314 32.3845 239.354 33.6678C238.38 34.9509 237.902 36.698 237.902 38.9089V54.5087C237.902 56.3176 237.222 57.6162 235.847 58.4202C234.471 59.224 232.385 59.6416 229.602 59.6416V31.1167H229.587Z" fill="black"/>
<path d="M287.28 57.9257C284.978 56.8281 283.153 55.313 281.809 53.3959C280.464 51.4788 279.784 49.3297 279.784 46.9488V37.9661C279.784 35.4461 280.48 33.1734 281.871 31.1481C283.262 29.1228 285.115 27.5303 287.433 26.3552C289.753 25.1801 292.255 24.5928 294.96 24.5928C297.664 24.5928 300.06 25.1492 302.286 26.247C304.511 27.3448 306.273 28.8752 307.586 30.8388C308.884 32.8023 309.551 35.0441 309.551 37.5641V41.3521C309.551 42.3414 309.18 43.1763 308.438 43.8566C307.695 44.5368 306.753 44.877 305.64 44.877H287.944V46.3612C287.944 48.2939 288.531 49.8708 289.706 51.0921C290.88 52.3137 292.626 52.9166 294.975 52.9166C297.324 52.9166 298.902 52.4219 300.015 51.4323C301.111 50.4428 301.669 49.1597 301.669 47.5826C302.471 47.4899 303.044 47.4434 303.353 47.4434C305.022 47.4434 306.32 47.8146 307.262 48.5566C308.204 49.2988 308.684 50.3501 308.684 51.6952C308.684 53.0401 308.082 54.2617 306.86 55.483C305.64 56.7043 303.986 57.6939 301.869 58.4514C299.751 59.2246 297.433 59.5954 294.913 59.5954C292.118 59.5954 289.582 59.039 287.28 57.9412V57.9257ZM301.931 38.8319V37.5488C301.931 35.6626 301.282 34.1319 299.969 32.957C298.669 31.7819 296.969 31.1943 294.9 31.1943C292.829 31.1943 291.144 31.7663 289.86 32.9106C288.578 34.0546 287.929 35.6006 287.929 37.5332V38.8166H301.9L301.931 38.8319Z" fill="black"/>
<path d="M327.54 17.9449C327.54 15.734 328.327 14.0488 329.904 12.8738C331.48 11.6988 333.707 11.1113 336.58 11.1113V32.7871L359.207 11.1268C360.336 11.9308 361.247 12.8429 361.942 13.8633C362.638 14.8837 362.993 15.765 362.993 16.538C362.993 17.2183 362.76 17.8831 362.282 18.5324C361.802 19.1817 361.107 19.9548 360.149 20.867L346.642 33.6373L365.202 56.8129C363.811 58.6991 361.989 59.6422 359.731 59.6422C357.476 59.6422 355.838 58.8382 354.54 57.2149L340.429 39.3115L336.58 43.0993V53.226C336.58 55.4369 335.853 57.0602 334.418 58.096C332.98 59.132 330.678 59.6422 327.524 59.6422V17.9449H327.54Z" fill="black"/>
<path d="M374.027 57.9718C371.725 56.874 369.902 55.3589 368.558 53.4418C367.211 51.5247 366.531 49.3758 366.531 46.9947V38.0122C366.531 35.492 367.227 33.2193 368.618 31.194C370.009 29.1687 371.865 27.5762 374.182 26.4013C376.5 25.2262 379.005 24.6387 381.709 24.6387C384.413 24.6387 386.809 25.1953 389.033 26.2931C391.26 27.3907 393.022 28.9213 394.336 30.8849C395.633 32.8482 396.298 35.09 396.298 37.6102V41.398C396.298 42.3876 395.927 43.2225 395.185 43.9027C394.445 44.5829 393.5 44.9231 392.389 44.9231H374.693V46.4073C374.693 48.3398 375.28 49.9169 376.453 51.1382C377.629 52.3596 379.376 52.9625 381.725 52.9625C384.073 52.9625 385.649 52.4678 386.762 51.4782C387.86 50.4889 388.416 49.2056 388.416 47.6287C389.22 47.5358 389.791 47.4896 390.1 47.4896C391.769 47.4896 393.069 47.8605 394.011 48.6027C394.953 49.3447 395.433 50.396 395.433 51.7411C395.433 53.0862 394.829 54.3076 393.609 55.5289C392.389 56.7505 390.733 57.7398 388.618 58.4973C386.5 59.2705 384.182 59.6416 381.662 59.6416C378.865 59.6416 376.331 59.0849 374.027 57.9873V57.9718ZM388.029 38.8933V37.6102C388.029 35.724 387.38 34.1933 386.067 33.0185C384.769 31.8433 383.069 31.2558 380.998 31.2558C378.927 31.2558 377.242 31.828 375.96 32.972C374.678 34.116 374.027 35.6622 374.027 37.5947V38.878H388L388.029 38.8933Z" fill="black"/>
<path d="M407.92 57.9718C405.618 56.874 403.794 55.3589 402.449 53.4418C401.105 51.5247 400.425 49.3758 400.425 46.9947V38.0122C400.425 35.492 401.12 33.2193 402.511 31.194C403.903 29.1687 405.756 27.5762 408.076 26.4013C410.394 25.2262 412.896 24.6387 415.603 24.6387C418.307 24.6387 420.703 25.1953 422.927 26.2931C425.154 27.3907 426.914 28.9213 428.229 30.8849C429.527 32.8482 430.191 35.09 430.191 37.6102V41.398C430.191 42.3876 429.82 43.2225 429.078 43.9027C428.336 44.5829 427.394 44.9231 426.28 44.9231H408.585V46.4073C408.585 48.3398 409.171 49.9169 410.347 51.1382C411.52 52.3596 413.267 52.9625 415.616 52.9625C417.967 52.9625 419.543 52.4678 420.656 51.4782C421.751 50.4889 422.309 49.2056 422.309 47.6287C423.114 47.5358 423.685 47.4896 423.994 47.4896C425.663 47.4896 426.96 47.8605 427.903 48.6027C428.847 49.3447 429.325 50.396 429.325 51.7411C429.325 53.0862 428.723 54.3076 427.503 55.5289C426.28 56.7505 424.627 57.7398 422.509 58.4973C420.391 59.2705 418.074 59.6416 415.556 59.6416C412.758 59.6416 410.223 59.0849 407.92 57.9873V57.9718ZM422.571 38.8933V37.6102C422.571 35.724 421.923 34.1933 420.609 33.0185C419.311 31.8433 417.611 31.2558 415.54 31.2558C413.469 31.2558 411.785 31.828 410.5 32.972C409.218 34.116 408.569 35.6622 408.569 37.5947V38.878H422.54L422.571 38.8933Z" fill="black"/>
<path d="M440.576 58.0654C438.645 57.0294 437.114 55.5917 435.987 53.7672C434.858 51.943 434.303 49.8403 434.303 47.4594V36.7914C434.303 34.457 434.889 32.3543 436.065 30.5146C437.238 28.6748 438.86 27.2214 440.963 26.1857C443.049 25.1497 445.383 24.6394 447.949 24.6394C449.618 24.6394 451.334 24.9952 453.112 25.6908C454.887 26.3866 456.387 27.3297 457.607 28.4892L457.887 28.149C457.654 27.7934 457.16 27.3452 456.403 26.8041V16.801C456.403 14.9921 457.114 13.6006 458.536 12.6112C459.956 11.6217 462.105 11.127 464.98 11.127V53.8137C464.98 55.4834 464.347 56.8594 463.094 57.9726C461.827 59.0703 459.88 59.6268 457.22 59.6268V55.9163C457.809 55.1897 458.24 54.6177 458.505 54.1539L458.165 53.891C456.774 55.7772 455.227 57.215 453.543 58.1737C451.858 59.1477 449.725 59.6268 447.161 59.6268C444.734 59.6268 442.54 59.1012 440.607 58.0808L440.576 58.0654ZM453.28 50.8761C454.563 49.9021 455.212 48.6808 455.212 47.1966V36.9926C455.212 35.5548 454.563 34.3488 453.28 33.3748C451.998 32.4008 450.314 31.9214 448.258 31.9214C446.047 31.9214 444.347 32.3852 443.158 33.313C441.967 34.2406 441.365 35.5548 441.365 37.2708V46.8563C441.365 48.6652 441.967 50.0259 443.158 50.9379C444.347 51.8657 446.078 52.3294 448.321 52.3294C450.345 52.3294 451.998 51.8501 453.28 50.8761Z" fill="black"/>
<path d="M475.953 58.2656C474.035 57.3689 472.506 56.0702 471.362 54.3849C470.218 52.6998 469.646 50.6745 469.646 48.3398C469.646 46.0053 470.249 43.9645 471.471 42.2329C472.691 40.5013 474.344 39.1718 476.431 38.244C478.518 37.3165 480.835 36.8527 483.355 36.8527C485.426 36.8527 487.28 37.1773 488.92 37.8267C490.558 38.476 492.086 39.4653 493.478 40.7642L493.818 40.424C493.415 40.022 492.72 39.4036 491.731 38.5996V37.2547C491.731 35.4147 491.082 33.946 489.769 32.8638C488.471 31.7816 486.646 31.2405 484.298 31.2405C480.109 31.2405 477.033 32.7709 475.04 35.8322C474.051 35.5229 473.218 35.0129 472.538 34.3171C471.858 33.6213 471.518 32.8638 471.518 32.0598C471.518 30.7147 472.12 29.4778 473.34 28.3493C474.562 27.2207 476.2 26.324 478.271 25.6436C480.342 24.9633 482.598 24.6387 485.024 24.6387C489.8 24.6387 493.493 25.7518 496.091 27.9782C498.702 30.2044 500 33.2349 500 37.0691V53.952C500 55.9309 499.366 57.3689 498.115 58.2809C496.846 59.1778 494.869 59.626 492.18 59.626V56.8587C492.938 56.1011 493.462 55.5289 493.724 55.1733L493.462 54.8333C491.98 56.4102 490.386 57.6007 488.702 58.4202C487.018 59.2396 484.869 59.6416 482.258 59.6416C479.955 59.6416 477.853 59.1931 475.938 58.2965L475.953 58.2656ZM489.893 52.1276C491.191 51.2309 491.855 49.9478 491.855 48.278C491.855 46.6082 491.191 45.3713 489.862 44.4282C488.533 43.4851 486.74 43.006 484.5 43.006C482.429 43.006 480.789 43.4698 479.6 44.3973C478.409 45.3251 477.806 46.6238 477.806 48.278C477.806 49.9322 478.393 51.2773 479.569 52.1587C480.744 53.0398 482.366 53.4727 484.438 53.4727C486.771 53.4727 488.595 53.0245 489.909 52.1276H489.893Z" fill="black"/>
<mask id="mask1_100_2" style="mask-type:luminance" maskUnits="userSpaceOnUse" x="164" y="70" width="336" height="27">
<path d="M499.111 70.7529H164.444V96.208H499.111V70.7529Z" fill="white"/>
</mask>
<g mask="url(#mask1_100_2)">
<path d="M182.046 72.2725L174.39 85.3551L166.635 72.2725H164.444V90.9H166.99V77.4029L173.719 88.6309H174.962L181.691 77.3042L181.711 90.9H184.256L184.236 72.2725H182.046Z" fill="black"/>
<path d="M194.615 76.6533C193.491 76.6533 192.425 76.8111 191.419 77.1269C190.393 77.4427 189.524 77.8767 188.794 78.4687L189.86 80.3829C190.412 79.9289 191.083 79.554 191.873 79.2778C192.662 79.0015 193.491 78.8633 194.319 78.8633C195.582 78.8633 196.529 79.1593 197.161 79.7513C197.792 80.3433 198.108 81.1918 198.108 82.2573V82.7704H194.063C192.662 82.7704 191.557 82.948 190.728 83.3229C189.899 83.698 189.307 84.1911 188.952 84.8029C188.597 85.4147 188.399 86.1251 188.399 86.8749C188.399 87.6247 188.617 88.3942 189.031 89.006C189.465 89.6373 190.057 90.1307 190.846 90.486C191.636 90.8411 192.543 91.0187 193.609 91.0187C194.911 91.0187 195.977 90.782 196.825 90.2887C197.417 89.9531 197.891 89.5191 198.226 88.9862V90.8609H200.653V82.356C200.653 80.4222 200.121 78.9818 199.075 78.0544C198.029 77.1071 196.529 76.6533 194.615 76.6533ZM196.529 88.4338C195.819 88.8678 194.971 89.0651 194.023 89.0651C193.076 89.0651 192.287 88.8482 191.734 88.4338C191.182 88.0193 190.906 87.4669 190.906 86.7762C190.906 86.1644 191.123 85.6513 191.577 85.2371C192.011 84.8029 192.879 84.6055 194.161 84.6055H198.108V86.5789C197.792 87.388 197.279 88.0193 196.549 88.4338H196.529Z" fill="black"/>
<path d="M207.836 79.1789V76.7913H205.39V90.9H207.935V83.8753C207.935 82.3362 208.33 81.1522 209.139 80.3431C209.948 79.534 211.013 79.1197 212.375 79.1197H212.651C212.651 79.1197 212.849 79.1197 212.947 79.1393V76.6729C211.605 76.6729 210.461 76.9293 209.533 77.4424C208.764 77.8568 208.211 78.4489 207.797 79.1986L207.836 79.1789Z" fill="black"/>
<path d="M229.424 76.791H226.346L218.65 83.8157V71.1475H216.104V90.8999H218.65V87.0321L221.57 84.309L226.878 90.8999H230.015L223.504 82.6121L229.424 76.791Z" fill="black"/>
<path d="M241.304 77.5611C240.257 76.9493 239.053 76.6533 237.693 76.6533C236.331 76.6533 235.126 76.9493 234.062 77.5807C232.995 78.1924 232.146 79.0409 231.535 80.1262C230.924 81.2115 230.608 82.4547 230.608 83.8558C230.608 85.2569 230.924 86.5 231.555 87.5853C232.186 88.6704 233.075 89.5191 234.22 90.1307C235.364 90.7424 236.686 91.0582 238.204 91.0582C239.368 91.0582 240.435 90.8609 241.382 90.4662C242.328 90.0715 243.117 89.4993 243.771 88.7691L242.368 87.1115C241.855 87.684 241.264 88.0982 240.573 88.3942C239.882 88.6704 239.133 88.8284 238.304 88.8284C237.297 88.8284 236.391 88.6311 235.62 88.2167C234.831 87.8022 234.24 87.23 233.804 86.5C233.488 85.9473 233.291 85.3553 233.193 84.7042H244.637C244.637 84.5858 244.677 84.4478 244.677 84.3095C244.677 84.1715 244.677 84.0333 244.677 83.9347C244.677 82.4744 244.382 81.2115 243.788 80.1262C243.197 79.0409 242.368 78.1924 241.322 77.5807L241.304 77.5611ZM235.304 79.416C235.995 79.0213 236.784 78.824 237.673 78.824C238.56 78.824 239.368 79.0213 240.06 79.416C240.751 79.8106 241.284 80.3631 241.677 81.0735C241.973 81.6062 242.151 82.1982 242.211 82.8493H233.153C233.233 82.1982 233.411 81.6062 233.706 81.0735C234.1 80.3631 234.633 79.7909 235.324 79.3962L235.304 79.416Z" fill="black"/>
<path d="M253.32 88.8876C252.611 88.8876 252.058 88.6902 251.682 88.2758C251.309 87.8616 251.111 87.2894 251.111 86.5198V78.8831H255.156V76.7718H251.111V73.6934H248.564V76.7718H246.178V78.8831H248.564V86.6185C248.564 88.0391 248.96 89.1245 249.729 89.894C250.518 90.6636 251.604 91.0385 253.024 91.0385C253.618 91.0385 254.169 90.9596 254.722 90.8018C255.256 90.6438 255.729 90.3874 256.122 90.0518L255.333 88.2167C254.8 88.6509 254.129 88.8876 253.34 88.8876H253.32Z" fill="black"/>
<path d="M261.747 76.791H259.2V90.8999H261.747V76.791Z" fill="black"/>
<path d="M260.484 70.7532C259.991 70.7532 259.575 70.911 259.239 71.2267C258.904 71.5425 258.746 71.937 258.746 72.4303C258.746 72.9236 258.904 73.279 259.239 73.5945C259.575 73.9103 259.991 74.0683 260.484 74.0683C260.977 74.0683 261.411 73.9103 261.726 73.575C262.042 73.2394 262.199 72.8447 262.199 72.3712C262.199 71.8976 262.042 71.5227 261.706 71.207C261.371 70.8912 260.957 70.7334 260.464 70.7334L260.484 70.7532Z" fill="black"/>
<path d="M277.198 77.3242C276.329 76.8902 275.302 76.6533 274.158 76.6533C272.876 76.6533 271.771 76.9098 270.805 77.4229C270.093 77.7978 269.522 78.3109 269.067 78.9226V76.7915H266.62V90.9004H269.167V83.6386C269.167 82.6126 269.345 81.7444 269.718 81.0538C270.073 80.3631 270.607 79.8302 271.278 79.4751C271.949 79.12 272.738 78.9422 273.645 78.9422C274.849 78.9422 275.796 79.2975 276.447 79.9882C277.118 80.6789 277.453 81.7049 277.453 83.0664V90.8806H280V82.7704C280 81.3891 279.742 80.2447 279.249 79.3369C278.756 78.4293 278.065 77.7584 277.198 77.3242Z" fill="black"/>
<path d="M295.804 78.9617C295.273 78.2908 294.64 77.7582 293.891 77.4028C292.904 76.9095 291.8 76.6729 290.595 76.6729C289.233 76.6729 288.011 76.9491 286.944 77.5213C285.88 78.0935 285.011 78.8829 284.4 79.9089C283.769 80.9351 283.453 82.1191 283.453 83.4806C283.453 84.8422 283.769 86.0262 284.4 87.0522C285.031 88.0782 285.88 88.8873 286.944 89.4595C288.011 90.0317 289.233 90.3277 290.595 90.3277C291.8 90.3277 292.904 90.0713 293.891 89.578C294.582 89.2229 295.173 88.7493 295.666 88.1375V89.2622C295.666 90.8606 295.273 92.0446 294.502 92.834C293.713 93.6231 292.491 93.9982 290.833 93.9982C289.786 93.9982 288.78 93.8402 287.833 93.5049C286.866 93.1693 286.078 92.7353 285.406 92.1629L284.182 94.1362C284.951 94.8071 285.938 95.3202 287.142 95.6951C288.366 96.0502 289.609 96.2475 290.911 96.2475C293.3 96.2475 295.115 95.6557 296.358 94.4915C297.6 93.3271 298.213 91.492 298.213 89.0057V76.7913H295.784V78.9617H295.804ZM295.095 85.8682C294.68 86.5589 294.109 87.0917 293.378 87.4864C292.649 87.8809 291.82 88.0782 290.871 88.0782C289.924 88.0782 289.095 87.8809 288.366 87.4864C287.635 87.0917 287.044 86.5589 286.629 85.8682C286.215 85.1775 285.998 84.3882 285.998 83.4806C285.998 82.5729 286.215 81.7835 286.629 81.0928C287.044 80.4022 287.615 79.8695 288.366 79.4748C289.095 79.1 289.944 78.9026 290.871 78.9026C291.8 78.9026 292.649 79.1 293.378 79.4748C294.109 79.8497 294.68 80.4022 295.095 81.0928C295.509 81.7835 295.726 82.5729 295.726 83.4806C295.726 84.3882 295.509 85.1775 295.095 85.8682Z" fill="black"/>
<path d="M311.531 70.7532C311.038 70.7532 310.625 70.911 310.289 71.2267C309.954 71.5425 309.796 71.937 309.796 72.4303C309.796 72.9236 309.954 73.279 310.289 73.5945C310.625 73.9103 311.038 74.0683 311.531 74.0683C312.025 74.0683 312.46 73.9103 312.776 73.575C313.091 73.2394 313.249 72.8447 313.249 72.3712C313.249 71.8976 313.091 71.5227 312.756 71.207C312.42 70.8912 312.007 70.7334 311.514 70.7334L311.531 70.7532Z" fill="black"/>
<path d="M312.796 76.791H310.249V90.8999H312.796V76.791Z" fill="black"/>
<path d="M326.036 83.836C325.502 83.5598 324.931 83.3624 324.3 83.2047C323.667 83.0467 323.016 82.9282 322.385 82.8295C321.754 82.7309 321.162 82.6127 320.649 82.4744C320.116 82.3364 319.702 82.1391 319.367 81.8824C319.031 81.626 318.874 81.2511 318.874 80.7775C318.874 80.2051 319.149 79.7513 319.702 79.3764C320.254 79.0213 321.082 78.824 322.207 78.824C322.898 78.824 323.589 78.9029 324.28 79.0607C324.969 79.2187 325.64 79.5147 326.274 79.9487L327.358 77.936C326.747 77.5215 325.976 77.2058 325.029 76.9889C324.082 76.7718 323.136 76.6533 322.227 76.6533C321.025 76.6533 319.978 76.8309 319.109 77.1664C318.222 77.5215 317.551 77.9951 317.078 78.6462C316.602 79.2778 316.367 80.0275 316.367 80.8762C316.367 81.7247 316.525 82.3364 316.84 82.8295C317.156 83.3229 317.589 83.698 318.122 83.9742C318.656 84.2504 319.247 84.4675 319.88 84.6055C320.511 84.7635 321.162 84.8818 321.794 84.9804C322.425 85.0791 323.016 85.1975 323.529 85.316C324.042 85.4344 324.478 85.6318 324.794 85.8684C325.109 86.1251 325.267 86.4604 325.267 86.9142C325.267 87.526 325.009 87.9798 324.478 88.3153C323.945 88.6509 323.096 88.8284 321.911 88.8284C320.985 88.8284 320.076 88.6902 319.189 88.3942C318.3 88.118 317.551 87.7629 316.958 87.3484L315.894 89.3611C316.505 89.8151 317.334 90.2098 318.38 90.5253C319.425 90.8411 320.549 90.9989 321.714 90.9989C322.978 90.9989 324.062 90.8213 324.951 90.486C325.858 90.1307 326.549 89.6571 327.062 89.0455C327.576 88.4338 327.811 87.684 327.811 86.8353C327.811 86.046 327.654 85.3949 327.318 84.9213C326.982 84.4478 326.569 84.0729 326.036 83.7967V83.836Z" fill="black"/>
<path d="M352.991 88.0584L348.827 76.791H346.676L342.413 88.0188L338.309 76.791H335.902L341.131 90.8999H343.578L347.702 80.2048L351.767 90.8999H354.213L359.482 76.791H357.193L352.991 88.0584Z" fill="black"/>
<path d="M372.645 77.3237C371.756 76.8897 370.749 76.6528 369.605 76.6528C368.322 76.6528 367.218 76.9092 366.251 77.4224C365.58 77.7775 365.047 78.2315 364.634 78.7839V71.1475H362.087V90.8801H364.634V83.6184C364.634 82.5924 364.811 81.7241 365.185 81.0335C365.54 80.3428 366.074 79.8101 366.745 79.4548C367.416 79.0997 368.205 78.9221 369.111 78.9221C370.316 78.9221 371.262 79.2772 371.914 79.9679C372.565 80.6586 372.92 81.6846 372.92 83.0461V90.8604H375.467V82.7501C375.467 81.369 375.209 80.2244 374.716 79.3168C374.222 78.409 373.531 77.7381 372.665 77.3039L372.645 77.3237Z" fill="black"/>
<path d="M385.313 76.6533C384.189 76.6533 383.122 76.8111 382.115 77.1269C381.091 77.4427 380.222 77.8767 379.491 78.4687L380.558 80.3829C381.109 79.9289 381.78 79.554 382.569 79.2778C383.36 79.0015 384.189 78.8633 385.018 78.8633C386.28 78.8633 387.227 79.1593 387.858 79.7513C388.489 80.3433 388.804 81.1918 388.804 82.2573V82.7704H384.76C383.36 82.7704 382.253 82.948 381.424 83.3229C380.598 83.698 380.004 84.1911 379.649 84.8029C379.293 85.4147 379.098 86.1251 379.098 86.8749C379.098 87.6247 379.313 88.3942 379.729 89.006C380.162 89.6373 380.755 90.1307 381.544 90.486C382.333 90.8411 383.24 91.0187 384.307 91.0187C385.609 91.0187 386.673 90.782 387.522 90.2887C388.115 89.9531 388.589 89.5191 388.924 88.9862V90.8609H391.351V82.356C391.351 80.4222 390.818 78.9818 389.773 78.0544C388.727 77.1071 387.227 76.6533 385.313 76.6533ZM387.247 88.4338C386.535 88.8678 385.687 89.0651 384.74 89.0651C383.793 89.0651 383.004 88.8482 382.451 88.4338C381.9 88.0193 381.622 87.4669 381.622 86.7762C381.622 86.1644 381.84 85.6513 382.293 85.2371C382.747 84.8227 383.595 84.6055 384.878 84.6055H388.824V86.5789C388.509 87.388 387.995 88.0193 387.267 88.4338H387.247Z" fill="black"/>
<path d="M401.218 88.8876C400.507 88.8876 399.955 88.6902 399.58 88.2758C399.204 87.8616 399.007 87.2894 399.007 86.5198V78.8831H403.053V76.7718H399.007V73.6934H396.462V76.7718H394.073V78.8831H396.462V86.6185C396.462 88.0391 396.855 89.1245 397.627 89.894C398.415 90.6636 399.5 91.0385 400.922 91.0385C401.513 91.0385 402.067 90.9596 402.618 90.8018C403.151 90.6438 403.624 90.3874 404.02 90.0518L403.231 88.2167C402.698 88.6509 402.027 88.8876 401.238 88.8876H401.218Z" fill="black"/>
<path d="M429.1 88.0584L424.936 76.791H422.765L418.522 88.0188L414.418 76.791H411.991L417.24 90.8999H419.687L423.811 80.2048L427.876 90.8999H430.322L435.591 76.791H433.302L429.1 88.0584Z" fill="black"/>
<path d="M447.175 77.5611C446.128 76.9493 444.924 76.6533 443.564 76.6533C442.202 76.6533 440.997 76.9493 439.933 77.5807C438.866 78.1924 438.019 79.0409 437.406 80.1262C436.795 81.2115 436.479 82.4547 436.479 83.8558C436.479 85.2569 436.795 86.5 437.426 87.5853C438.057 88.6704 438.946 89.5191 440.091 90.1307C441.235 90.7424 442.557 91.0582 444.077 91.0582C445.24 91.0582 446.306 90.8609 447.253 90.4662C448.2 90.0715 448.991 89.4993 449.642 88.7691L448.239 87.1115C447.726 87.684 447.135 88.0982 446.444 88.3942C445.753 88.6704 445.004 88.8284 444.175 88.8284C443.168 88.8284 442.262 88.6311 441.491 88.2167C440.702 87.8022 440.111 87.23 439.675 86.5C439.359 85.9473 439.164 85.3553 439.064 84.7042H450.508C450.508 84.5858 450.548 84.4478 450.548 84.3095C450.548 84.1715 450.548 84.0333 450.548 83.9347C450.548 82.4744 450.253 81.2115 449.662 80.1262C449.068 79.0409 448.24 78.1924 447.195 77.5807L447.175 77.5611ZM441.175 79.416C441.866 79.0213 442.655 78.824 443.544 78.824C444.431 78.824 445.24 79.0213 445.931 79.416C446.622 79.8106 447.155 80.3631 447.548 81.0735C447.846 81.6062 448.024 82.1982 448.082 82.8493H439.024C439.104 82.1982 439.282 81.6062 439.577 81.0735C439.973 80.3631 440.504 79.7909 441.195 79.3962L441.175 79.416Z" fill="black"/>
<path d="M471.957 78.9417C471.484 78.3301 470.913 77.817 470.262 77.4619C469.295 76.929 468.229 76.6726 467.044 76.6726C465.684 76.6726 464.46 76.9686 463.395 77.5801C462.329 78.1919 461.48 79.0208 460.849 80.0864C460.237 81.1519 459.922 82.4148 459.922 83.8552C459.922 85.2957 460.237 86.5586 460.849 87.6241C461.46 88.7095 462.309 89.5579 463.395 90.1499C464.46 90.7617 465.684 91.0577 467.044 91.0577C468.269 91.0577 469.353 90.7815 470.32 90.2486C471.011 89.8539 471.604 89.3212 472.077 88.6699V90.8997H474.524V71.1475H471.977V78.9417H471.957ZM471.366 86.4599C470.953 87.2097 470.38 87.8017 469.669 88.1964C468.96 88.6108 468.151 88.8081 467.262 88.8081C466.375 88.8081 465.546 88.6108 464.835 88.1964C464.124 87.7821 463.553 87.2097 463.137 86.4599C462.704 85.7101 462.506 84.8419 462.506 83.8355C462.506 82.8292 462.724 81.9608 463.137 81.211C463.573 80.481 464.124 79.9088 464.835 79.4943C465.546 79.0799 466.355 78.8826 467.262 78.8826C468.171 78.8826 468.96 79.0799 469.669 79.4943C470.38 79.9088 470.953 80.481 471.366 81.211C471.782 81.9412 471.997 82.8292 471.997 83.8355C471.997 84.8419 471.782 85.7101 471.366 86.4599Z" fill="black"/>
<path d="M489.167 77.5807C488.06 76.9691 486.798 76.6533 485.398 76.6533C483.996 76.6533 482.713 76.9493 481.629 77.5807C480.522 78.1924 479.656 79.0409 479.022 80.1262C478.391 81.2115 478.056 82.4547 478.056 83.8558C478.056 85.2569 478.371 86.4802 479.022 87.5655C479.656 88.6509 480.522 89.5191 481.629 90.1307C482.733 90.7424 483.976 91.0582 485.398 91.0582C486.818 91.0582 488.06 90.7424 489.167 90.1307C490.271 89.5191 491.14 88.6509 491.771 87.5853C492.402 86.5 492.718 85.2569 492.718 83.8558C492.718 82.4547 492.402 81.1918 491.771 80.1262C491.14 79.0607 490.271 78.2122 489.167 77.6004V77.5807ZM489.52 86.4604C489.107 87.2102 488.553 87.8022 487.825 88.1969C487.113 88.6113 486.285 88.8086 485.398 88.8086C484.509 88.8086 483.68 88.6113 482.969 88.1969C482.26 87.7827 481.687 87.2102 481.273 86.4604C480.838 85.7107 480.642 84.8424 480.642 83.836C480.642 82.8295 480.858 81.9613 481.273 81.2115C481.707 80.4815 482.26 79.9091 482.969 79.4949C483.68 79.0804 484.489 78.8831 485.398 78.8831C486.305 78.8831 487.113 79.0804 487.825 79.4949C488.536 79.9091 489.107 80.4815 489.52 81.2115C489.936 81.9418 490.133 82.8295 490.133 83.836C490.133 84.8424 489.936 85.7107 489.52 86.4604Z" fill="black"/>
<path d="M498.4 85.0198L498.913 72.2725H495.896L496.389 85.0198H498.4Z" fill="black"/>
<path d="M498.637 88.1181C498.322 87.8023 497.906 87.6445 497.413 87.6445C496.919 87.6445 496.506 87.8023 496.171 88.1181C495.835 88.4339 495.657 88.8483 495.657 89.3416C495.657 89.7954 495.835 90.2099 496.171 90.5452C496.506 90.8808 496.919 91.0583 497.413 91.0583C497.906 91.0583 498.322 90.8808 498.637 90.5452C498.953 90.2099 499.111 89.8152 499.111 89.3416C499.111 88.8483 498.953 88.4339 498.637 88.1181Z" fill="black"/>
</g>
</g>
</g>
<defs>
<radialGradient id="paint0_radial_100_2" cx="0" cy="0" r="1" gradientUnits="userSpaceOnUse" gradientTransform="translate(71.1142 48.1026) scale(59.49 59.0967)">
<stop stop-color="#E84E1B"/>
<stop offset="1" stop-color="#BD1622"/>
</radialGradient>
<clipPath id="clip0_100_2">
<rect width="500" height="97.7778" fill="white"/>
</clipPath>
</defs>
</svg>
