<svg width="208" height="68" viewBox="0 0 208 68" fill="none" xmlns="http://www.w3.org/2000/svg">
<path d="M75.739 44.6643V44.5819C75.739 40.7872 72.9305 37.6513 68.9433 37.6513C64.8728 37.6513 62.2724 40.7529 62.2724 44.4996V44.5819C62.2724 48.3354 65.0808 51.4714 69.0265 51.4714C73.1386 51.4714 75.739 48.3698 75.739 44.6643ZM57.1964 44.6643V44.5819C57.1964 38.4267 62.2308 33.3282 69.0265 33.3282C75.8222 33.3282 80.8149 38.3444 80.8149 44.4996V44.5819C80.8149 50.696 75.7806 55.7944 68.9433 55.7944C62.1892 55.7944 57.1964 50.7852 57.1964 44.6643ZM101.368 44.5956V44.5064C101.368 40.3481 98.4768 37.617 95.0373 37.617C91.5979 37.617 88.5745 40.3892 88.5745 44.5064V44.5888C88.5745 48.706 91.5979 51.4782 95.0373 51.4782C98.5184 51.4782 101.368 48.8295 101.368 44.5888V44.5956ZM83.6164 27.7837C83.6164 26.3976 84.712 25.334 86.1405 25.334C87.569 25.334 88.6993 26.3907 88.6993 27.7837V37.37C90.3358 35.1261 92.645 33.3351 96.2508 33.3351C101.452 33.3351 106.528 37.3288 106.528 44.5064V44.5888C106.528 51.7253 101.493 55.7601 96.2508 55.7601C92.5618 55.7601 90.2526 53.976 88.6924 51.9654V53.0702C88.6879 53.397 88.6182 53.7197 88.4874 54.0199C88.3567 54.32 88.1673 54.5916 87.9302 54.8192C87.6932 55.0468 87.4131 55.2258 87.1059 55.3461C86.7988 55.4663 86.4708 55.5254 86.1405 55.52C85.8127 55.5227 85.4875 55.4615 85.1836 55.3398C84.8797 55.2182 84.6029 55.0385 84.3692 54.811C84.1355 54.5835 83.9493 54.3127 83.8213 54.014C83.6933 53.7153 83.6261 53.3946 83.6233 53.0702L83.6164 27.7837ZM109.717 36.025C109.717 34.6389 110.806 33.541 112.235 33.541C113.663 33.541 114.793 34.6389 114.793 36.025V53.0702C114.792 53.399 114.723 53.7242 114.593 54.0265C114.462 54.3288 114.272 54.6021 114.033 54.8305C113.793 55.0588 113.511 55.2374 113.201 55.3558C112.891 55.4742 112.56 55.53 112.228 55.52C111.9 55.5245 111.574 55.4645 111.27 55.3434C110.965 55.2223 110.688 55.0426 110.455 54.8147C110.221 54.5868 110.036 54.3152 109.909 54.0157C109.783 53.7162 109.717 53.3948 109.717 53.0702V36.025ZM109.336 27.9965C109.336 26.5211 110.584 25.581 112.228 25.581C113.871 25.581 115.119 26.5211 115.119 27.9896V28.2366C115.119 29.7051 113.864 30.6864 112.228 30.6864C110.591 30.6864 109.336 29.7051 109.336 28.2366V27.9965ZM119.654 29.0463C119.654 27.6602 120.785 26.5554 122.255 26.5554C123.683 26.5554 124.814 27.6602 124.814 29.0463V41.1235L138.738 27.4955C139.001 27.1922 139.33 26.9506 139.699 26.788C140.068 26.6255 140.469 26.546 140.874 26.5554C142.302 26.5554 143.266 27.6602 143.266 28.8885C143.263 29.2481 143.179 29.6025 143.019 29.9255C142.86 30.2486 142.629 30.532 142.344 30.755L133.19 39.3188L143.1 51.2655C143.555 51.7559 143.81 52.397 143.814 53.0634C143.814 54.4495 142.683 55.5131 141.213 55.5131C140.208 55.5131 139.577 55.0327 139.029 54.3328L129.591 42.6262L124.807 47.114V53.0291C124.806 53.3597 124.738 53.6868 124.608 53.9914C124.479 54.296 124.289 54.5719 124.05 54.8031C123.811 55.0343 123.528 55.2162 123.217 55.3381C122.907 55.46 122.575 55.5195 122.241 55.5131C121.905 55.5222 121.57 55.4648 121.257 55.3443C120.944 55.2237 120.658 55.0424 120.416 54.811C120.174 54.5796 119.982 54.3028 119.85 53.9968C119.718 53.6908 119.649 53.3618 119.647 53.0291V29.0532L119.654 29.0463ZM149.861 53.4751L143.897 37.0817C143.749 36.6764 143.667 36.2501 143.654 35.8191C143.654 34.6389 144.618 33.5341 146.13 33.5341C147.378 33.5341 148.224 34.3575 148.605 35.4898L152.884 48.5413L157.204 35.4898C157.578 34.3507 158.501 33.5341 159.804 33.5341H160.096C161.399 33.5341 162.315 34.3575 162.696 35.4898L167.058 48.5413L171.378 35.4486C171.711 34.385 172.508 33.5341 173.853 33.5341C175.24 33.5341 176.246 34.5977 176.246 35.8191C176.229 36.1929 176.159 36.5625 176.038 36.9171L169.998 53.4751C169.443 54.9847 168.403 55.6778 167.19 55.6778H167.023C165.768 55.6778 164.714 54.9916 164.249 53.5574L159.936 40.7529L155.568 53.5574C155.11 54.9847 154.063 55.6846 152.849 55.6846H152.683C151.428 55.6846 150.374 54.9847 149.874 53.4751H149.861ZM178.971 36.025C178.971 34.6389 180.06 33.541 181.488 33.541C182.917 33.541 184.047 34.6389 184.047 36.025V53.0702C184.045 53.399 183.977 53.7242 183.846 54.0265C183.716 54.3288 183.525 54.6021 183.286 54.8305C183.047 55.0588 182.764 55.2374 182.454 55.3558C182.144 55.4742 181.813 55.53 181.481 55.52C181.153 55.5245 180.828 55.4645 180.523 55.3434C180.219 55.2223 179.942 55.0426 179.708 54.8147C179.475 54.5868 179.289 54.3152 179.163 54.0157C179.036 53.7162 178.971 53.3948 178.971 53.0702V36.025ZM178.59 27.9965C178.59 26.5211 179.838 25.581 181.481 25.581C183.125 25.581 184.373 26.5211 184.373 27.9896V28.2366C184.373 29.7051 183.118 30.6864 181.481 30.6864C179.845 30.6864 178.59 29.7051 178.59 28.2366V27.9965ZM188.326 27.7906C188.326 26.4388 189.414 25.334 190.843 25.334C192.271 25.334 193.401 26.4319 193.401 27.7837V43.6899L202.922 34.5977C203.595 33.9458 204.226 33.541 205.107 33.541C206.452 33.541 207.326 34.5977 207.326 35.7848C207.326 36.6083 206.91 37.2121 206.202 37.864L200.329 43.1272L207.041 51.6498C207.506 52.2674 207.714 52.7134 207.714 53.2829C207.714 54.6279 206.625 55.5268 205.322 55.5268C204.316 55.5268 203.727 55.2043 203.096 54.4289L196.765 46.2288L193.408 49.3304V53.0839C193.407 53.4127 193.339 53.7379 193.208 54.0402C193.077 54.3425 192.887 54.6159 192.648 54.8442C192.408 55.0725 192.126 55.2511 191.816 55.3695C191.506 55.4879 191.175 55.5438 190.843 55.5337C190.515 55.5382 190.189 55.4782 189.885 55.3571C189.58 55.2361 189.303 55.0563 189.07 54.8284C188.836 54.6005 188.651 54.3289 188.524 54.0294C188.398 53.7299 188.332 53.4086 188.332 53.0839V27.7975L188.326 27.7906ZM57.7859 34.083C56.5099 34.083 55.4698 33.0743 55.4698 31.8323C55.4698 30.5903 56.5099 29.5747 57.7859 29.5747C59.0687 29.5747 60.1089 30.5903 60.1089 31.8392C60.1089 33.0881 59.0687 34.083 57.7859 34.083ZM62.0644 30.6177C61.6206 26.5966 57.4391 28.216 57.4391 28.216C54.4712 29.3277 53.7917 28.8542 53.7917 28.8542L54.3464 21.0315C54.0344 17.3672 49.0901 18.6367 49.0901 18.6367C51.7668 19.8375 51.219 21.2442 51.219 21.2442C51.219 21.2442 48.3066 50.0647 47.9737 51.9174C47.6409 53.7701 45.0613 53.0016 45.0613 53.0016V56.1581H48.4175C50.8792 56.1581 51.1011 52.8918 51.1011 52.8918L52.7446 37.5895C55.338 37.1641 57.3698 36.5808 57.3698 36.5808C62.8757 34.7624 62.0644 30.6246 62.0644 30.6246V30.6177ZM59.0826 31.8323C59.0808 31.999 59.0458 32.1638 58.9796 32.3171C58.9135 32.4704 58.8175 32.6094 58.6971 32.726C58.5766 32.8426 58.4342 32.9346 58.2779 32.9967C58.1215 33.0588 57.9543 33.0899 57.7859 33.0881C57.0785 33.0881 56.4961 32.5185 56.4961 31.8323C56.52 31.5091 56.6666 31.2068 56.9065 30.9862C57.1464 30.7655 57.4618 30.6429 57.7893 30.6429C58.1168 30.6429 58.4322 30.7655 58.6721 30.9862C58.912 31.2068 59.0586 31.5091 59.0826 31.8323ZM35.5334 23.2891C35.5456 23.2696 35.5595 23.2512 35.575 23.2342C35.7694 22.7609 36.0877 22.3473 36.4973 22.0362C36.9068 21.725 37.3927 21.5274 37.905 21.4638C37.3745 21.4718 36.8557 21.6198 36.4023 21.8924C35.9488 22.165 35.5771 22.5524 35.3254 23.0146L27.4133 36.7249L26.068 41.3636L35.5334 23.2891ZM3.53128 55.7327C3.19158 55.5617 2.8897 55.3254 2.64324 55.0377C2.39677 54.75 2.21067 54.4167 2.09577 54.0571C1.98088 53.6974 1.93949 53.3188 1.97404 52.9432C2.00858 52.5676 2.11836 52.2025 2.29696 51.8694L21.8658 15.7546C22.0708 15.385 22.3553 15.0644 22.6991 14.8154C23.043 14.5664 23.4379 14.3951 23.8559 14.3136L23.9877 14.2724C24.0986 14.2587 24.2304 14.2381 24.3552 14.2381L24.4939 14.2244L24.6049 14.2381C24.695 14.2381 24.7782 14.2519 24.8684 14.2656C25.0409 14.2859 25.2107 14.325 25.3746 14.3822C25.5181 14.4243 25.6574 14.4795 25.7906 14.5469C25.8114 14.5538 25.8322 14.5538 25.8322 14.5675C25.9983 14.6436 26.1525 14.743 26.2899 14.8626C26.3176 14.8832 26.3454 14.8969 26.3593 14.9175L26.5257 15.0753C26.4771 15.0067 26.4355 14.9243 26.3801 14.8694C26.2579 14.7211 26.1208 14.5855 25.9709 14.4646L25.8947 14.396C25.756 14.3067 25.6311 14.2107 25.4786 14.1352L25.437 14.094C25.4162 14.094 25.3954 14.094 25.3676 14.0803C25.2428 14.0185 25.1111 13.9568 24.9516 13.9156L24.7921 13.8607C24.6811 13.8333 24.5563 13.8195 24.4384 13.799C24.3467 13.7849 24.2539 13.7781 24.1611 13.7784L24.057 13.7646L23.9045 13.7784L23.53 13.8127L23.3913 13.847C22.9639 13.9299 22.5601 14.1051 22.2089 14.3601C21.8577 14.6151 21.5677 14.9437 21.3596 15.3223L1.38856 52.1782C1.20431 52.5187 1.09076 52.8922 1.05459 53.2768C1.01843 53.6614 1.06038 54.0493 1.17798 54.4176C1.29558 54.7859 1.48646 55.1272 1.73936 55.4214C1.99227 55.7156 2.3021 55.9567 2.65062 56.1307C3.13442 56.3756 3.67554 56.4881 4.21804 56.4568C4.76053 56.4254 5.28472 56.2512 5.73641 55.9523C4.99578 56.1676 4.20012 56.0965 3.51048 55.7533L3.53128 55.7327ZM24.5078 52.8232C23.7438 52.8269 23.0092 52.5319 22.4638 52.0025C21.9184 51.4731 21.6063 50.752 21.5953 49.996V28.5386L21.1099 29.4306V50.2637C20.7511 50.6031 20.4836 51.0258 20.3317 51.4934C20.1798 51.961 20.1482 52.4588 20.2399 52.9415C20.3316 53.4242 20.5436 53.8767 20.8567 54.2578C21.1698 54.639 21.5741 54.9367 22.033 55.1241C22.4918 55.3114 22.9907 55.3825 23.4843 55.3308C23.9779 55.2791 24.4507 55.1062 24.8597 54.828C25.2687 54.5497 25.6011 54.1748 25.8266 53.7372C26.0521 53.2996 26.1637 52.8133 26.1512 52.3223C25.6638 52.6481 25.096 52.8225 24.5078 52.8232ZM38.2794 51.2998C37.5155 51.3035 36.7809 51.0086 36.2355 50.4791C35.6901 49.9497 35.378 49.2286 35.367 48.4727V35.9015L34.9024 36.8004V48.9118C34.9035 49.6189 35.1576 50.3027 35.6196 50.842C36.0817 51.3813 36.7218 51.7413 37.4265 51.8581C38.1312 51.9748 38.8549 51.8409 39.4692 51.4799C40.0836 51.119 40.549 50.5544 40.7828 49.8863C40.5267 50.3183 40.161 50.6766 39.7219 50.9257C39.2828 51.1749 38.7856 51.2993 38.2794 51.2998ZM26.068 41.3636C27.4133 36.6289 27.4133 36.6289 26.068 41.3636V41.3636ZM46.7463 15.5968C46.7463 15.5968 37.4335 17.127 27.4133 18.7533V36.7249C26.068 41.3636 26.068 41.3705 35.5265 23.296C35.5409 23.2762 35.5571 23.2578 35.575 23.2411C35.8276 22.6263 36.2868 22.1167 36.875 21.7981C37.4633 21.4796 38.1447 21.3717 38.804 21.4927C39.4634 21.6137 40.0603 21.9561 40.4941 22.4622C40.9279 22.9682 41.1719 23.6069 41.185 24.2704V48.4727C41.185 50.0303 39.8744 51.2998 38.2794 51.2998C36.6845 51.2998 35.367 50.0235 35.367 48.4727V35.9015L27.6282 50.4284C27.5187 50.6278 27.3835 50.8123 27.2261 50.9773C26.9867 51.606 26.5329 52.1321 25.9432 52.4649C25.3534 52.7976 24.6647 52.916 23.9961 52.7997C23.3275 52.6833 22.7209 52.3394 22.2813 51.8275C21.8417 51.3156 21.6035 50.6678 21.5953 49.996V28.5386L7.50468 54.525C7.12899 55.1977 6.50338 55.6993 5.76039 55.9235C5.01741 56.1476 4.21542 56.0767 3.52435 55.7258C3.18374 55.5548 2.88105 55.3183 2.63398 55.0301C2.38691 54.7419 2.20044 54.4078 2.08549 54.0474C1.97054 53.6869 1.92943 53.3074 1.96455 52.9311C1.99967 52.5548 2.11032 52.1891 2.29003 51.8556L19.5428 20.0159C11.2839 21.3472 4.1207 22.5 3.1915 22.6235C0.882349 22.9048 0.362271 24.8605 0.362271 24.8605C0.362271 24.8605 0.285992 55.6709 0.362271 57.1943C0.431614 58.7176 2.082 59.0059 2.082 59.0059C2.082 59.0059 41.0047 59.2941 43.0156 59.0059C45.0266 58.7177 45.4011 56.4738 45.4011 56.4738L49.3537 17.5388C49.208 14.9998 46.7463 15.5762 46.7463 15.5762V15.5968Z" fill="#0043CF"/>
</svg>
