<svg width="207" height="68" viewBox="0 0 207 68" fill="none" xmlns="http://www.w3.org/2000/svg">
<path d="M41.2583 25.9349V43.3103H48.3911V25.9349C48.3911 17.7701 41.5786 12.7217 35.2669 12.7217C31.8111 12.7217 28.2334 14.2841 25.6663 16.9637C24.4718 15.6686 22.9983 14.6218 21.3413 13.891C19.6842 13.1602 17.8807 12.7618 16.0476 12.7217C9.65925 12.7217 2.82422 18.0599 2.82422 25.9349V39.8369C2.82422 41.9369 4.41229 43.6379 6.38385 43.6379C8.35541 43.6379 9.9525 41.9579 9.9525 39.8369V25.9349C9.9525 22.7219 13.1693 20.3237 16.0476 20.3237C17.6403 20.3315 19.1649 20.9262 20.2877 21.9778C21.4105 23.0294 22.0402 24.4522 22.039 25.9349V39.8369C22.039 41.9369 23.6361 43.6379 25.6032 43.6379C27.5702 43.6379 29.1763 41.9579 29.1763 39.8369V25.9349C29.1763 22.7219 32.3931 20.3237 35.2669 20.3237C36.8596 20.3315 38.3842 20.9262 39.507 21.9778C40.6298 23.0294 41.2595 24.4522 41.2583 25.9349Z" fill="#F58220"/>
<path d="M53.7688 47.6192C53.3729 47.6207 52.9815 47.5404 52.6229 47.384C51.089 46.6994 50.3671 44.8346 50.9897 43.184L52.8665 38.333C53.4936 36.6908 55.2577 35.9054 56.7916 36.5816C58.3255 37.2578 59.0474 39.1268 58.4293 40.7816L56.5525 45.641C56.3647 46.1979 55.9963 46.6871 55.4979 47.0413C54.9995 47.3955 54.3955 47.5974 53.7688 47.6192Z" fill="#F58220"/>
<path d="M63.2838 38.9802C62.7811 38.5625 62.3814 38.0487 62.1119 37.4738C61.8425 36.8989 61.7098 36.2766 61.7228 35.6496C61.7228 33.3606 63.4372 31.5756 65.5982 31.5756C66.4651 31.5767 67.3037 31.8622 67.9668 32.382C70.8317 34.6206 73.9447 35.9982 77.599 35.9982C80.9962 35.9982 83.04 34.5618 83.04 32.2182V32.1048C83.04 29.8662 81.7497 28.7448 75.447 27.0018C67.854 24.927 62.959 22.68 62.959 14.7V14.5866C62.959 7.31635 68.4496 2.51995 76.1508 2.51995C80.4444 2.47078 84.6394 3.719 88.1065 6.07735C88.6954 6.47599 89.1704 7.00301 89.4897 7.61223C89.8091 8.22144 89.963 8.89427 89.9382 9.57175C89.9382 11.865 88.2148 13.6416 86.0582 13.6416C85.3049 13.6435 84.5704 13.4229 83.9603 13.0116C81.2128 11.2896 78.6277 10.3194 76.047 10.3194C72.8664 10.3194 71.2016 11.865 71.2016 13.818V13.9314C71.2016 16.569 72.8168 17.43 79.3224 19.2066C86.9651 21.3318 91.2781 24.2466 91.2781 31.2522V31.3698C91.2781 39.3498 85.571 43.8144 77.4321 43.8144C72.2564 43.7796 67.2548 42.0706 63.2838 38.9802Z" fill="#1B3E71"/>
<path d="M97.0981 34.5035V19.9379H96.8274C94.8874 19.9379 93.3264 18.2579 93.3264 16.2125C93.3264 14.1671 94.8874 12.4829 96.8274 12.4829H97.0981V8.63567C97.0981 6.22907 98.9298 4.28027 101.19 4.28027C103.45 4.28027 105.282 6.22907 105.282 8.63567V12.4829H108.891C110.827 12.4829 112.383 14.1629 112.383 16.2125C112.383 18.2621 110.827 19.9379 108.891 19.9379H105.282V33.0755C105.282 35.0789 106.09 36.0575 107.921 36.0575C108.188 36.0575 108.72 35.9987 108.891 35.9987C110.696 35.9987 112.284 37.6073 112.284 39.6107C112.302 40.2848 112.114 40.9499 111.742 41.5285C111.37 42.107 110.829 42.5751 110.182 42.8783C108.707 43.4833 107.105 43.7704 105.494 43.7183C100.486 43.7393 97.0981 41.6183 97.0981 34.5035Z" fill="#1B3E71"/>
<path d="M114.265 28.0226V27.9134C114.265 19.0934 120.946 11.9072 129.933 11.9072C138.92 11.9072 145.498 18.9632 145.498 27.7958V27.9134C145.498 36.7334 138.821 43.907 129.83 43.907C120.838 43.907 114.265 36.8552 114.265 28.0226ZM137.423 28.0226V27.9134C137.423 23.3816 134.35 19.421 129.83 19.421C125.147 19.421 122.345 23.264 122.345 27.7958V27.9134C122.345 32.4452 125.413 36.3974 129.933 36.3974C134.625 36.3974 137.423 32.5544 137.423 28.0226Z" fill="#1B3E71"/>
<path d="M148.404 28.0226V27.9134C148.404 19.1354 154.72 11.9072 163.54 11.9072C167.898 11.9072 170.966 13.1672 173.389 15.347C173.81 15.7365 174.142 16.2017 174.365 16.7143C174.588 17.2269 174.696 17.7763 174.684 18.329C174.684 20.5088 173.019 22.2308 170.966 22.2308C170.094 22.2294 169.253 21.9306 168.602 21.3908C167.14 20.1812 165.638 19.4378 163.486 19.4378C159.389 19.4378 156.484 23.2808 156.484 27.8126V27.9302C156.484 32.6342 159.335 36.4142 163.806 36.4142C165.963 36.4142 167.632 35.612 169.193 34.3142C169.805 33.8139 170.585 33.5286 171.399 33.5078C173.339 33.5078 174.846 35.1878 174.846 37.2374C174.852 38.2652 174.428 39.2549 173.664 39.9968C171.237 42.3488 168.169 43.9448 163.427 43.9448C154.747 43.907 148.404 36.8006 148.404 28.0226Z" fill="#1B3E71"/>
<path d="M178.929 5.36712C178.929 2.96052 180.734 1.01172 183.021 1.01172C185.308 1.01172 187.113 2.96052 187.113 5.36712V24.4099L197.345 14.0821C198.532 12.8809 199.502 12.1375 200.955 12.1375C203.165 12.1375 204.564 14.0317 204.564 16.0393C204.564 17.5261 203.81 18.6769 202.678 19.8193L196.213 25.7329L203.923 36.7999C204.565 37.6173 204.922 38.5978 204.947 39.6097C204.947 41.9617 203.174 43.5661 201.121 43.5661C199.511 43.5661 198.541 42.9907 197.571 41.5627L190.388 31.0795L187.1 34.2379V39.2065C187.1 41.6173 185.268 43.5661 183.008 43.5661C180.747 43.5661 178.916 41.6173 178.916 39.2065L178.929 5.36712Z" fill="#1B3E71"/>
<path d="M99.1824 51.37C99.6594 51.3452 100.136 51.4267 100.572 51.6079C101.009 51.7891 101.392 52.0646 101.691 52.4116C102.337 53.2587 102.655 54.2849 102.593 55.3222C102.593 56.5822 102.295 57.565 101.691 58.2622C101.391 58.6041 101.009 58.8756 100.575 59.0551C100.142 59.2345 99.6696 59.3168 99.196 59.2954C98.6855 59.3035 98.1792 59.209 97.7117 59.0182C97.2807 58.8344 96.9124 58.5438 96.6469 58.1782H96.5477C96.3943 58.7368 96.2995 59.0602 96.2725 59.1484H95.2844V48.2998H96.6379V50.9374C96.6379 51.4624 96.6153 51.9874 96.5657 52.5124H96.6379C96.9201 52.1338 97.3028 51.8297 97.7487 51.6295C98.1946 51.4293 98.6885 51.3399 99.1824 51.37ZM98.9568 52.4074C98.6217 52.3743 98.2829 52.4165 97.9689 52.5305C97.6548 52.6445 97.3748 52.827 97.1522 53.0626C96.7913 53.4994 96.6108 54.2386 96.6108 55.2802V55.339C96.6108 56.3862 96.7943 57.1338 97.1612 57.5818C97.3836 57.8186 97.6631 58.0029 97.9768 58.1197C98.2905 58.2365 98.6294 58.2825 98.9659 58.2538C99.288 58.2729 99.61 58.2131 99.8996 58.0805C100.189 57.9479 100.437 57.747 100.617 57.4978C101.021 56.8326 101.209 56.0724 101.158 55.3096C101.216 54.5498 101.026 53.7914 100.613 53.134C100.424 52.894 100.173 52.7018 99.8839 52.5749C99.5947 52.448 99.276 52.3904 98.9568 52.4074Z" fill="#1B3E71"/>
<path d="M103.288 51.4961H104.736L106.509 55.8599C106.797 56.5421 107.028 57.2443 107.199 57.9599H107.258C107.303 57.7877 107.407 57.4685 107.565 56.9939C107.723 56.5193 107.863 56.1539 107.971 55.8599L109.64 51.5171H111.097L107.551 60.2363C107.314 60.9293 106.892 61.5549 106.324 62.0549C105.824 62.4265 105.199 62.6215 104.56 62.6051C104.185 62.6057 103.811 62.5662 103.446 62.4875V61.4879C103.742 61.55 104.045 61.5782 104.348 61.5719C104.744 61.5828 105.131 61.4655 105.444 61.2401C105.782 60.9673 106.035 60.6147 106.175 60.2195L106.604 59.2031L103.288 51.4961Z" fill="#1B3E71"/>
<path d="M121.1 59.1527L118.46 51.1727H118.393C118.487 52.8023 118.537 53.8859 118.537 54.4319V59.1737H116.462V48.9551H119.62L122.214 56.7545H122.259L125.007 48.9551H128.165V59.1527H125.999V54.3269C125.999 54.1001 125.999 53.8355 125.999 53.5373C125.999 53.2391 126.04 52.4495 126.098 51.1685H126.031L123.206 59.1485L121.1 59.1527Z" fill="#1B3E71"/>
<path d="M130.651 49.3372C130.651 48.6484 131.066 48.2998 131.896 48.2998C132.726 48.2998 133.137 48.6484 133.137 49.3372C133.146 49.4791 133.123 49.6212 133.069 49.7543C133.015 49.8875 132.932 50.0086 132.825 50.11C132.566 50.3121 132.233 50.4116 131.896 50.3872C131.066 50.3998 130.651 50.0386 130.651 49.3372ZM133.033 59.1526H130.75V51.3532H133.033V59.1526Z" fill="#1B3E71"/>
<path d="M140.107 51.2105C140.366 51.2063 140.624 51.2275 140.878 51.2735L140.707 53.2643C140.485 53.215 140.258 53.1924 140.03 53.1971C139.411 53.161 138.801 53.3474 138.325 53.7179C138.117 53.9075 137.955 54.1365 137.85 54.3893C137.745 54.6422 137.699 54.913 137.716 55.1837V59.1527H135.428V51.3533H137.152L137.49 52.6679H137.603C137.854 52.2393 138.215 51.8756 138.654 51.6095C139.085 51.3447 139.591 51.2057 140.107 51.2105Z" fill="#1B3E71"/>
<path d="M147.569 59.1529L147.118 58.0945H147.077C146.766 58.4885 146.359 58.8093 145.891 59.0311C145.386 59.2231 144.843 59.3119 144.298 59.2915C143.952 59.3087 143.605 59.261 143.279 59.1514C142.953 59.0417 142.654 58.8723 142.399 58.6531C142.157 58.4069 141.971 58.1178 141.853 57.8031C141.734 57.4884 141.685 57.1546 141.709 56.8219C141.681 56.4675 141.753 56.1127 141.917 55.7918C142.08 55.4709 142.33 55.1949 142.642 54.9907C143.498 54.54 144.47 54.315 145.453 54.3397L146.906 54.2977V53.9575C146.906 53.1679 146.455 52.7731 145.602 52.7731C144.782 52.8065 143.979 52.9981 143.243 53.3359L142.489 51.8995C143.478 51.4224 144.578 51.18 145.692 51.1939C146.613 51.1364 147.527 51.3784 148.277 51.8785C148.593 52.1388 148.839 52.4643 148.996 52.8289C149.153 53.1935 149.216 53.5872 149.18 53.9785V59.1739L147.569 59.1529ZM146.892 55.5409L145.99 55.5661C145.473 55.5515 144.962 55.6676 144.51 55.9021C144.349 56.0056 144.219 56.1463 144.134 56.3105C144.048 56.4747 144.01 56.6566 144.023 56.8387C144.023 57.4393 144.393 57.7375 145.128 57.7375C145.595 57.76 146.053 57.609 146.401 57.3175C146.555 57.1681 146.675 56.9908 146.753 56.7964C146.83 56.602 146.864 56.3947 146.852 56.1877L146.892 55.5409Z" fill="#1B3E71"/>
<path d="M155.306 59.291C154.732 59.3221 154.157 59.2464 153.615 59.0683C153.073 58.8901 152.574 58.6132 152.148 58.2536C151.754 57.8615 151.449 57.3984 151.254 56.8929C151.058 56.3873 150.976 55.8499 151.011 55.3136C151.011 54.0088 151.362 52.998 152.062 52.2812C152.438 51.9192 152.892 51.6365 153.395 51.4525C153.898 51.2684 154.437 51.1872 154.977 51.2144C155.482 51.1857 155.988 51.2544 156.463 51.4163C156.938 51.5782 157.372 51.8297 157.738 52.1552C158.082 52.5047 158.347 52.9149 158.517 53.3615C158.688 53.808 158.76 54.2819 158.731 54.755V55.7882H153.317C153.308 56.3113 153.515 56.8177 153.894 57.2036C154.096 57.3799 154.335 57.5159 154.596 57.6033C154.856 57.6907 155.134 57.7276 155.41 57.7118C155.891 57.7153 156.371 57.6659 156.84 57.5648C157.326 57.4554 157.797 57.2992 158.248 57.0986V58.745C157.841 58.9335 157.411 59.0746 156.967 59.165C156.419 59.2607 155.863 59.303 155.306 59.291ZM154.986 52.7222C154.774 52.7107 154.563 52.7423 154.365 52.8148C154.168 52.8874 153.991 52.9991 153.845 53.1422C153.555 53.4913 153.397 53.9191 153.393 54.3602H156.601C156.618 53.9162 156.457 53.4821 156.15 53.1422C156 52.9986 155.818 52.8868 155.617 52.8143C155.416 52.7418 155.201 52.7104 154.986 52.7222Z" fill="#1B3E71"/>
<path d="M171.44 59.1527L170.646 56.7251H166.653L165.859 59.1527H163.355L167.221 48.9131H170.086L173.966 59.1527H171.44ZM170.086 54.9107C169.351 52.7141 168.94 51.4709 168.846 51.1811C168.751 50.8913 168.688 50.6645 168.647 50.4965C168.485 51.0929 168.012 52.5643 167.23 54.9107H170.086Z" fill="#1B3E71"/>
<path d="M181 56.8388C181.021 57.1888 180.95 57.5383 180.793 57.8568C180.635 58.1753 180.397 58.4531 180.097 58.6658C179.496 59.0802 178.604 59.2888 177.422 59.2916C176.899 59.2983 176.377 59.2603 175.861 59.1782C175.447 59.1068 175.043 58.9927 174.656 58.838V57.0824C175.118 57.2795 175.598 57.4355 176.091 57.5486C176.549 57.6648 177.02 57.7283 177.494 57.7376C178.324 57.7376 178.739 57.515 178.739 57.0698C178.744 56.9929 178.732 56.9159 178.703 56.8436C178.674 56.7713 178.63 56.7053 178.573 56.6498C178.403 56.5061 178.212 56.3871 178.004 56.297C177.733 56.1626 177.377 56.0072 176.926 55.8308C176.424 55.6515 175.947 55.4174 175.505 55.1336C175.224 54.9425 174.998 54.6901 174.846 54.3986C174.701 54.0757 174.632 53.7278 174.643 53.378C174.628 53.0639 174.7 52.7515 174.851 52.4702C175.001 52.1888 175.226 51.9477 175.505 51.7694C176.242 51.352 177.098 51.1542 177.959 51.2024C178.977 51.2025 179.983 51.4119 180.905 51.8156L180.219 53.3402C179.8 53.1722 179.407 53.0378 179.042 52.9202C178.681 52.8148 178.305 52.761 177.927 52.7606C177.251 52.7606 176.917 52.9286 176.917 53.2688C176.922 53.3703 176.954 53.4689 177.011 53.5556C177.067 53.6423 177.147 53.7141 177.242 53.7644C177.697 54.0088 178.174 54.2167 178.667 54.386C179.176 54.5585 179.66 54.7899 180.106 55.0748C180.393 55.267 180.625 55.5205 180.783 55.814C180.939 56.1356 181.013 56.4863 181 56.8388Z" fill="#1B3E71"/>
<path d="M188.624 56.839C188.645 57.1889 188.574 57.5383 188.417 57.8567C188.259 58.1751 188.021 58.453 187.722 58.666C187.12 59.0804 186.227 59.289 185.042 59.2918C184.521 59.2985 184 59.2605 183.486 59.1784C183.072 59.1069 182.668 58.9928 182.281 58.8382V57.0826C182.743 57.2796 183.223 57.4357 183.716 57.5488C184.173 57.6655 184.645 57.729 185.119 57.7378C185.949 57.7378 186.364 57.5152 186.364 57.07C186.368 56.9931 186.355 56.9164 186.326 56.8442C186.298 56.7721 186.254 56.7061 186.197 56.65C186.028 56.5062 185.836 56.3872 185.629 56.2972C185.358 56.1628 184.997 56.0074 184.55 55.831C184.049 55.6516 183.572 55.4176 183.129 55.1338C182.847 54.9438 182.621 54.6911 182.471 54.3988C182.322 54.0768 182.251 53.7284 182.263 53.3782C182.249 53.0636 182.321 52.7508 182.472 52.4694C182.624 52.1879 182.85 51.9471 183.129 51.7696C183.866 51.3516 184.722 51.1538 185.584 51.2026C186.602 51.2031 187.608 51.4125 188.53 51.8158L187.848 53.3404C187.429 53.1724 187.036 53.038 186.671 52.9204C186.31 52.8153 185.934 52.7615 185.556 52.7608C184.88 52.7608 184.541 52.9288 184.541 53.269C184.547 53.3707 184.58 53.4695 184.638 53.5561C184.695 53.6428 184.775 53.7145 184.871 53.7646C185.326 54.0098 185.803 54.2178 186.296 54.3862C186.805 54.5595 187.288 54.7909 187.736 55.075C188.019 55.2684 188.25 55.5218 188.408 55.8142C188.564 56.1357 188.638 56.4864 188.624 56.839Z" fill="#1B3E71"/>
<path d="M194.201 59.2911C193.627 59.3222 193.052 59.2465 192.509 59.0684C191.967 58.8903 191.468 58.6133 191.042 58.2537C190.648 57.8616 190.343 57.3986 190.148 56.893C189.952 56.3874 189.87 55.85 189.906 55.3137C189.906 54.0089 190.256 52.9981 190.957 52.2813C191.331 51.9199 191.785 51.6375 192.287 51.4535C192.789 51.2694 193.328 51.1879 193.867 51.2145C194.372 51.1855 194.879 51.254 195.355 51.4159C195.831 51.5778 196.266 51.8296 196.632 52.1553C196.974 52.5057 197.238 52.9162 197.408 53.3626C197.577 53.809 197.65 54.2824 197.62 54.7551V55.7883H192.206C192.198 56.3114 192.404 56.8178 192.784 57.2037C192.985 57.3801 193.223 57.5162 193.483 57.6036C193.743 57.6911 194.019 57.7279 194.295 57.7119C194.778 57.7156 195.26 57.6663 195.73 57.5649C196.215 57.4556 196.687 57.2993 197.138 57.0987V58.7451C196.73 58.933 196.3 59.074 195.856 59.1651C195.311 59.2606 194.756 59.3028 194.201 59.2911ZM193.88 52.7223C193.669 52.7105 193.457 52.742 193.26 52.8146C193.062 52.8871 192.885 52.999 192.739 53.1423C192.445 53.4894 192.286 53.9186 192.288 54.3603H195.491C195.51 53.916 195.349 53.4812 195.04 53.1423C194.89 52.9988 194.709 52.887 194.509 52.8145C194.309 52.7421 194.095 52.7106 193.88 52.7223Z" fill="#1B3E71"/>
<path d="M203.021 57.5992C203.511 57.5834 203.996 57.5013 204.46 57.3556V58.939C203.795 59.1913 203.08 59.3114 202.362 59.2918C202 59.3224 201.635 59.2809 201.291 59.1701C200.947 59.0593 200.633 58.8818 200.368 58.6492C199.907 58.099 199.684 57.4086 199.741 56.713V52.933H198.649V52.03L199.908 51.3202L200.567 49.6738H202.028V51.3538H204.374V52.954H202.033V56.734C202.023 56.857 202.041 56.9806 202.088 57.096C202.135 57.2114 202.209 57.3159 202.304 57.4018C202.509 57.5459 202.764 57.616 203.021 57.5992Z" fill="#1B3E71"/>
</svg>
