<svg width="24" height="24" viewBox="0 0 24 24" fill="none" xmlns="http://www.w3.org/2000/svg">
<path d="M20.487 17.14L16.422 13.444C16.023 13.081 15.407 13.1 15.031 13.487L12.638 15.948C12.062 15.838 10.904 15.477 9.71204 14.288C8.52004 13.095 8.15904 11.934 8.05204 11.362L10.511 8.968C10.899 8.592 10.917 7.977 10.554 7.577L6.85904 3.513C6.49604 3.112 5.87904 3.074 5.46804 3.426L3.29804 5.287C3.12504 5.461 3.02204 5.691 3.00804 5.936C2.99304 6.186 2.70704 12.108 7.29904 16.702C11.305 20.707 16.323 21 17.705 21C17.907 21 18.031 20.994 18.064 20.992C18.309 20.978 18.539 20.875 18.712 20.701L20.572 18.53C20.926 18.119 20.887 17.503 20.487 17.14Z" fill="white"/>
</svg>
