<svg width="206" height="68" viewBox="0 0 206 68" fill="none" xmlns="http://www.w3.org/2000/svg">
<path d="M29.6385 22.6338V51.3524H19.7182V47.778C17.6974 50.6129 14.758 52.2152 10.5939 52.2152C3.85791 52.2152 0 48.3326 0 41.1222V22.6338H9.98157V39.0268C9.98157 42.8477 11.5125 44.3884 14.6356 44.3884C17.9423 44.3884 19.7182 42.5396 19.7182 38.7187V22.6338H29.6385Z" fill="#EE2C3C"/>
<path d="M66.6866 36.9926C66.6866 40.3205 66.0743 43.0321 65.0945 45.3124C63.0124 49.6263 59.032 52.2147 53.5208 52.2147C49.6628 52.2147 46.6623 50.9205 44.5802 48.2705V63.0612H34.5986V22.6333H44.3353V26.0845C46.4785 23.1263 49.5404 21.7705 53.5208 21.7705C59.032 21.7705 63.0124 24.3589 65.0945 28.7345C66.1355 31.0147 66.6866 33.6647 66.6866 36.9926ZM56.0927 36.9926C56.0927 34.9589 55.8477 33.5414 55.3578 32.4938C54.5005 30.5833 52.6634 29.5973 50.214 29.5973C46.4785 29.5973 44.3965 31.8775 44.3965 36.1298V37.7321C44.3965 41.9845 46.4173 44.3263 50.214 44.3263C52.6634 44.3263 54.4393 43.3403 55.3578 41.4298C55.8477 40.3821 56.0927 38.9647 56.0927 36.9926Z" fill="#EE2C3C"/>
<path d="M116.901 22.6342H126.821V25.2225C128.352 22.8191 130.066 21.833 132.455 21.833C136.006 21.833 138.272 24.0516 138.272 27.4411C138.272 30.6458 135.945 33.0493 132.516 33.0493C130.434 33.0493 128.658 32.0016 127.862 30.4609C127.005 30.8307 126.821 31.2621 126.821 33.2958V51.4144H116.839L116.901 22.6342Z" fill="#EE2C3C"/>
<path d="M169.809 34.8365V51.3528H159.828V47.9632C157.868 50.6132 154.806 52.1539 149.968 52.1539C145.253 52.1539 141.763 50.5516 140.232 47.347C139.619 46.176 139.375 44.8818 139.375 43.2795C139.375 41.7388 139.619 40.4446 140.109 39.3353C142.253 34.8365 148.07 33.7888 155.296 33.7888H159.766V33.3574C159.766 31.6318 159.644 31.0156 159.276 30.276C158.664 28.9818 157.317 28.3656 155.174 28.3656C152.847 28.3656 151.561 28.9202 150.948 30.2144C150.703 30.7691 150.642 31.2004 150.581 31.94H140.416C140.477 30.3993 140.783 29.0435 141.334 27.9342C143.294 23.7435 148.376 21.833 155.051 21.833C162.277 21.833 166.502 23.6818 168.462 27.8109C169.38 29.6598 169.809 32.0016 169.809 34.8365ZM159.276 42.7249C159.705 41.9237 159.828 41.1225 159.828 39.5818V39.1504H156.031C153.153 39.1504 150.826 39.4586 150.213 40.9377C150.03 41.3074 149.907 41.6772 149.907 42.2318C149.907 42.7249 149.968 43.1563 150.213 43.5877C150.826 44.8818 152.357 45.3132 154.133 45.3132C156.766 45.3132 158.542 44.3888 159.276 42.7249Z" fill="#EE2C3C"/>
<path d="M206 10.7394V51.4138H196.263V47.9626C194.12 50.8591 191.12 52.2149 187.078 52.2149C181.567 52.2149 177.586 49.6882 175.504 45.3126C174.463 43.094 173.912 40.3824 173.912 36.9928C173.912 33.7266 174.524 31.0149 175.504 28.7347C177.525 24.3591 181.567 21.7708 187.078 21.7708C190.936 21.7708 193.875 23.0649 196.019 25.7149V10.6777H206V10.7394ZM196.141 36.1917C196.141 31.9394 194.12 29.6591 190.324 29.6591C187.874 29.6591 186.098 30.6452 185.18 32.5556C184.69 33.6033 184.445 35.0208 184.445 37.0545C184.445 39.1498 184.69 40.5056 185.18 41.6149C186.098 43.5254 187.874 44.5115 190.324 44.5115C194.059 44.5115 196.141 42.2312 196.141 37.9789V36.1917Z" fill="#EE2C3C"/>
<path d="M94.3655 29.7209V37.1163H100.795L100.55 38.1023C99.7543 41.307 95.774 43.464 92.5284 43.464C88.0581 43.464 82.2407 41.3686 82.2407 31.4465C82.2407 23.25 85.9761 19.3058 91.6711 19.3058C94.7942 19.3058 97.1824 20.0453 98.6521 22.1407C99.2644 23.0651 99.8156 24.2977 99.8768 25.407H111.267C111.267 25.407 111.512 20.2919 107.225 15.8547C107.164 15.793 107.103 15.7314 107.041 15.6698C103.551 12.0337 98.3459 10 91.9161 10C78.7502 10 70.2383 18.443 70.2383 31.5698C70.2383 46.7302 81.0159 52.0919 90.2627 52.0919C95.4678 52.0919 100.122 50.6128 102.939 47.6546L103.061 51.414H112.002V51.1058V44.6965V29.7209H94.3655Z" fill="#EE2C3C"/>
</svg>
