<svg width="256" height="256" viewBox="0 0 256 256" fill="none" xmlns="http://www.w3.org/2000/svg">
<g clip-path="url(#clip0_167_4)">
<path d="M168.074 67.6845L169.171 89.0158C169.515 95.6423 162.943 100.34 156.952 97.7474L137.676 89.3995C134.632 88.0825 132.567 85.1374 132.319 81.7775L130.684 59.658C130.179 52.8553 136.977 48.0021 143.076 50.8124L162.889 59.9484C165.901 61.338 167.902 64.3246 168.074 67.6949V67.6845ZM206.378 77.5879L186.565 68.4519C180.476 65.6416 173.678 70.5052 174.173 77.2976L175.808 99.417C176.056 102.777 178.121 105.722 181.165 107.039L200.441 115.387C206.432 117.979 212.994 113.292 212.66 106.655L211.563 85.324C211.391 81.9538 209.39 78.9672 206.378 77.5776V77.5879ZM249.706 95.549L229.892 86.4129C223.804 83.6026 217.006 88.4662 217.501 95.2586L219.136 117.378C219.383 120.738 221.448 123.683 224.492 125L243.768 133.348C249.76 135.94 256.321 131.253 255.988 124.616L254.891 103.285C254.719 99.9148 252.718 96.9282 249.706 95.5386V95.549ZM112.936 50.802L93.1221 59.938C90.1103 61.3276 88.1095 64.3142 87.9374 67.6845L86.8403 89.0158C86.496 95.6423 93.0683 100.34 99.0597 97.7474L118.336 89.3995C121.38 88.0825 123.445 85.1374 123.692 81.7775L125.327 59.658C125.833 52.8553 119.035 48.0021 112.936 50.8124V50.802ZM69.4468 68.4519L49.6332 77.5879C46.6213 78.9775 44.6206 81.9641 44.4485 85.3344L43.3513 106.666C43.0071 113.292 49.5794 117.99 55.5708 115.397L74.8466 107.049C77.8908 105.732 79.956 102.787 80.2034 99.4274L81.8384 77.308C82.344 70.5052 75.5458 65.652 69.4468 68.4623V68.4519ZM26.1085 86.4129L6.29482 95.549C3.28297 96.9385 1.28224 99.9251 1.11014 103.295L0.0129656 124.627C-0.331246 131.253 6.24104 135.951 12.2325 133.358L31.5083 125.01C34.5524 123.693 36.6177 120.748 36.8651 117.388L38.5001 95.269C39.0056 88.4662 32.2075 83.613 26.1085 86.4233V86.4129ZM162.889 113.52L143.076 104.384C136.988 101.574 130.189 106.438 130.684 113.23L132.319 135.349C132.567 138.709 134.632 141.654 137.676 142.971L156.952 151.319C162.943 153.912 169.505 149.225 169.171 142.588L168.074 121.256C167.902 117.886 165.901 114.9 162.889 113.51V113.52ZM206.378 131.17L186.565 122.034C180.476 119.224 173.678 124.087 174.173 130.88L175.808 152.999C176.056 156.359 178.121 159.304 181.165 160.621L200.441 168.969C206.432 171.562 212.994 166.874 212.66 160.238L211.563 138.906C211.391 135.536 209.39 132.549 206.378 131.16V131.17ZM112.936 104.395L93.1221 113.531C90.1103 114.92 88.1095 117.907 87.9374 121.277L86.8403 142.608C86.496 149.235 93.0683 153.933 99.0597 151.34L118.336 142.992C121.38 141.675 123.445 138.73 123.692 135.37L125.327 113.251C125.833 106.448 119.035 101.595 112.936 104.405V104.395ZM69.4468 122.034L49.6332 131.17C46.6213 132.56 44.6206 135.546 44.4485 138.917L43.3513 160.248C43.0071 166.874 49.5794 171.572 55.5708 168.98L74.8466 160.632C77.8908 159.315 79.956 156.37 80.2034 153.01L81.8384 130.89C82.344 124.087 75.5458 119.234 69.4468 122.045V122.034ZM162.889 167.466L143.076 158.33C136.988 155.519 130.189 160.383 130.684 167.175L132.319 189.295C132.567 192.655 134.632 195.6 137.676 196.917L156.952 205.265C162.943 207.857 169.505 203.17 169.171 196.533L168.074 175.202C167.902 171.831 165.901 168.845 162.889 167.455V167.466ZM112.936 158.33L93.1221 167.466C90.1103 168.855 88.1095 171.842 87.9374 175.212L86.8403 196.543C86.496 203.17 93.0683 207.867 99.0597 205.275L118.336 196.927C121.38 195.61 123.445 192.665 123.692 189.305L125.327 167.186C125.833 160.383 119.035 155.53 112.936 158.34V158.33Z" fill="url(#paint0_radial_167_4)"/>
</g>
<defs>
<radialGradient id="paint0_radial_167_4" cx="0" cy="0" r="1" gradientUnits="userSpaceOnUse" gradientTransform="translate(128.006 127.997) scale(107.082 103.234)">
<stop stop-color="#E84E1B"/>
<stop offset="1" stop-color="#BD1622"/>
</radialGradient>
<clipPath id="clip0_167_4">
<rect width="256" height="156" fill="white" transform="translate(0 50)"/>
</clipPath>
</defs>
</svg>
